<svg width="177" height="49" viewBox="0 0 177 49" fill="none" xmlns="http://www.w3.org/2000/svg">
<g clip-path="url(#clip0_1261_14173)">
<path d="M18.0056 33.4303L10.7302 14.6178L4.71609 33.2133H0L10.4242 1.10938L18.0141 20.8039L25.6381 1.11223L36.0197 33.2133H31.3376L25.3207 14.6064L18.0056 33.4303Z" fill="#003135"/>
<path d="M41.5625 2.02526C41.5625 1.87397 41.6305 1.72838 41.7609 1.59421C41.8941 1.45719 42.033 1.38867 42.1804 1.38867H46.2928C46.4401 1.38867 46.579 1.45719 46.7122 1.59421C46.8454 1.73124 46.9106 1.87682 46.9106 2.02526V32.6105C46.9106 32.7618 46.8454 32.9046 46.7122 33.0416C46.579 33.1786 46.4401 33.2471 46.2928 33.2471H42.1804C42.033 33.2471 41.8941 33.1786 41.7609 33.0416C41.6277 32.9046 41.5625 32.7618 41.5625 32.6105V2.02526Z" fill="#003135"/>
<path d="M73.1676 28.377C73.2866 28.5312 73.3433 28.6824 73.3433 28.8309V32.6105C73.3433 32.7618 73.2866 32.9074 73.1676 33.0416C73.0485 33.1786 72.904 33.2471 72.7254 33.2471H55.485C55.3093 33.2471 55.1619 33.1786 55.0429 33.0416C54.9267 32.9046 54.8672 32.7618 54.8672 32.6105V2.02526C54.8672 1.87397 54.9267 1.72838 55.0429 1.59421C55.1591 1.45719 55.3065 1.38867 55.485 1.38867H59.5521C59.6995 1.38867 59.8384 1.45719 59.9716 1.59421C60.1019 1.73124 60.17 1.87682 60.17 2.02526V27.8774C60.17 28.0601 60.255 28.1486 60.4335 28.1486H72.7198C72.8983 28.1486 73.0428 28.2257 73.1619 28.377" fill="#003135"/>
<path d="M84.8056 6.75836V14.2234C84.8056 14.4061 84.8935 14.4946 85.0692 14.4946H95.2808C95.4281 14.4946 95.567 14.5631 95.7002 14.7001C95.8334 14.8372 95.8986 14.9828 95.8986 15.134V19.0022C95.8986 19.1849 95.8306 19.3362 95.7002 19.4589C95.567 19.5788 95.4281 19.6416 95.2808 19.6416H85.0692C84.8935 19.6416 84.8056 19.733 84.8056 19.9128V27.8774C84.8056 28.0601 84.8935 28.1486 85.0692 28.1486H97.4461C97.6218 28.1486 97.7692 28.2257 97.8882 28.377C98.0073 28.5312 98.0639 28.6824 98.0639 28.8309V32.6105C98.0639 32.7618 98.0044 32.9074 97.8882 33.0416C97.772 33.1786 97.6246 33.2471 97.4461 33.2471H80.1179C79.9393 33.2471 79.7919 33.1786 79.6757 33.0416C79.5595 32.9046 79.5 32.7618 79.5 32.6105V2.02526C79.5 1.87397 79.5567 1.72838 79.6757 1.59135C79.7919 1.45433 79.9421 1.38867 80.1179 1.38867H97.4461C97.6218 1.38867 97.7692 1.45718 97.8882 1.59135C98.0073 1.72838 98.0639 1.87397 98.0639 2.02526V5.80204C98.0639 5.95333 98.0044 6.10464 97.8882 6.25879C97.772 6.41009 97.6246 6.48716 97.4461 6.48716H85.0692C84.8935 6.48716 84.8056 6.57851 84.8056 6.76121" fill="#003135"/>
<path d="M103.583 29.8783C103.404 29.6956 103.288 29.5357 103.229 29.4015C103.169 29.2645 103.214 29.059 103.362 28.7878V28.8334L104.955 25.9673C105.102 25.7247 105.295 25.5791 105.53 25.5363C105.765 25.4906 105.955 25.5277 106.102 25.6505L106.19 25.6961C106.366 25.8474 106.734 26.0986 107.296 26.4469C107.854 26.7952 108.506 27.152 109.24 27.5174C109.977 27.8828 110.745 28.1997 111.538 28.4737C112.332 28.7449 113.069 28.882 113.749 28.882C114.985 28.882 116.011 28.5109 116.821 27.7686C117.632 27.0264 118.037 26.1215 118.037 25.0595C118.037 23.8463 117.553 22.7843 116.58 21.8765C115.608 20.9659 114.149 20.1152 112.204 19.3273C111.173 18.9048 110.155 18.4024 109.155 17.8257C108.154 17.2519 107.267 16.5754 106.502 15.8017C105.734 15.0281 105.116 14.1346 104.646 13.1155C104.172 12.0992 103.937 10.9259 103.937 9.58991C103.937 8.58791 104.135 7.55736 104.532 6.49542C104.932 5.43347 105.536 4.48571 106.346 3.65214C107.157 2.81856 108.18 2.142 109.418 1.6253C110.657 1.1086 112.117 0.883081 113.794 0.943029C114.914 1.00298 115.977 1.16284 116.977 1.41976C117.978 1.67668 118.887 1.98214 119.695 2.33041C120.506 2.67868 121.192 3.01269 121.75 3.33241C122.308 3.64928 122.708 3.9005 122.943 4.0832C123.119 4.20595 123.229 4.38579 123.275 4.62844C123.32 4.87109 123.283 5.08234 123.164 5.26504C122.898 5.69039 122.612 6.13001 122.303 6.58391C121.994 7.03781 121.705 7.48029 121.441 7.90564C121.294 8.14829 121.101 8.32813 120.866 8.45089C120.63 8.57364 120.409 8.55936 120.202 8.40521C120.115 8.34526 119.834 8.17113 119.364 7.8828C118.893 7.59448 118.332 7.29188 117.683 6.97215C117.034 6.65528 116.334 6.36696 115.583 6.10718C114.832 5.85026 114.146 5.72179 113.528 5.72179C112.851 5.72179 112.253 5.82742 111.737 6.04152C111.221 6.25277 110.784 6.52682 110.43 6.86082C110.076 7.19482 109.812 7.56593 109.634 7.97415C109.458 8.38522 109.37 8.78774 109.37 9.18169C109.37 10.335 109.821 11.297 110.719 12.0706C111.618 12.8443 112.964 13.6864 114.764 14.5971C115.824 15.1423 116.901 15.7104 117.989 16.3042C119.08 16.8951 120.066 17.5802 120.951 18.351C121.835 19.1246 122.563 20.0353 123.139 21.0801C123.711 22.1277 124 23.3638 124 24.7883C124 25.9416 123.765 27.0721 123.292 28.1769C122.821 29.2845 122.15 30.2636 121.279 31.1115C120.409 31.9622 119.355 32.6302 118.119 33.1126C116.881 33.5979 115.481 33.7949 113.919 33.7036C112.533 33.6408 111.249 33.4466 110.07 33.1126C108.891 32.7786 107.851 32.4075 106.955 31.9965C106.057 31.5882 105.312 31.1857 104.722 30.7918C104.133 30.3978 103.736 30.0952 103.529 29.8811H103.574L103.583 29.8783Z" fill="#003135"/>
<path d="M6.28508 39.5476L3.47356 43.5756C3.43955 43.6098 3.39704 43.6327 3.35169 43.6327H3.32902C3.27517 43.6327 3.22982 43.6098 3.20715 43.5756L0.384291 39.5362V46.7643C0.384291 46.8442 0.330442 46.9127 0.251085 46.9127C0.171727 46.9127 0.109375 46.8442 0.109375 46.7643V39.1279C0.109375 39.0594 0.174561 38.9795 0.251085 38.9795C0.262421 38.9795 0.273758 38.9795 0.285095 38.9909C0.316271 38.9909 0.350281 39.0138 0.384291 39.0366L3.33752 43.2587L6.29074 39.0366C6.31342 39.0138 6.34743 38.9909 6.3786 38.9909C6.38994 38.9795 6.40128 38.9795 6.40978 38.9795C6.49764 38.9795 6.55432 39.0594 6.55432 39.1279V46.7643C6.55432 46.8442 6.49764 46.9127 6.40978 46.9127C6.34459 46.9127 6.27657 46.8442 6.27657 46.7643V39.5476H6.28508Z" stroke="#003135" stroke-miterlimit="10" stroke-linejoin="round"/>
<path d="M6.42228 47.0354C6.28907 47.0354 6.17287 46.9098 6.17287 46.767V39.9272L3.57391 43.6497C3.50589 43.7239 3.4322 43.7582 3.35568 43.7582C3.24231 43.7582 3.16012 43.7154 3.11478 43.6469L0.510154 39.9158V46.7699C0.510154 46.9212 0.399621 47.0382 0.260746 47.0382C0.119036 47.0382 0 46.9155 0 46.7699V39.1336C0 38.9937 0.124704 38.8652 0.260746 38.8652C0.272082 38.8652 0.303258 38.8652 0.334434 38.8824C0.38545 38.8938 0.425129 38.9223 0.459139 38.9452L0.487481 38.9737L3.34718 43.0588L6.20404 38.9737C6.24939 38.9223 6.29757 38.8938 6.34575 38.8852C6.37693 38.8681 6.4081 38.8681 6.42228 38.8681C6.57816 38.8681 6.68302 39.008 6.68302 39.1364V46.7728C6.68302 46.9241 6.56965 47.0411 6.42228 47.0411M6.4081 39.1707V46.7642C6.4081 46.7642 6.41944 46.787 6.42511 46.7899C6.42794 46.7899 6.44778 46.7899 6.44778 46.7642V39.1279C6.44778 39.1279 6.44778 39.1193 6.44211 39.1107H6.3911L3.35001 43.4642L0.311761 39.125C0.311761 39.125 0.291922 39.1136 0.286253 39.1107H0.246575C0.246575 39.1107 0.238072 39.1222 0.235238 39.1279V46.7642C0.235238 46.7642 0.249409 46.7899 0.260746 46.7899L0.274916 39.1593L3.31033 43.5041L3.35852 43.5098C3.35852 43.5098 3.38402 43.5041 3.39536 43.4899L6.4081 39.1707Z" stroke="#003135" stroke-miterlimit="10" stroke-linejoin="round"/>
<path d="M8.14026 46.9124H8.11758C8.02972 46.9124 7.98438 46.8439 7.98438 46.764V39.1162C7.98438 39.0477 8.02689 38.9792 8.11758 38.9678H12.23C12.3065 38.9678 12.3632 39.0363 12.3632 39.1162C12.3632 39.1961 12.3093 39.2532 12.23 39.2532H8.26213V42.7931H11.7567C11.8332 42.7931 11.8899 42.8616 11.8899 42.9301C11.8899 43.0214 11.836 43.0785 11.7567 43.0785H8.26213V46.6298H12.23C12.3065 46.6298 12.3632 46.6869 12.3632 46.7668C12.3632 46.8467 12.3093 46.9153 12.23 46.9153H8.15159H8.14026V46.9124Z" stroke="#003135" stroke-miterlimit="10" stroke-linejoin="round"/>
<path d="M12.229 47.036H8.1166C7.97205 47.036 7.86719 46.9218 7.86719 46.7676V39.1199C7.86719 38.98 7.96355 38.8687 8.10243 38.8516H8.13927H12.229C12.3679 38.8516 12.4784 38.9715 12.4784 39.1199C12.4784 39.2655 12.3707 39.3768 12.229 39.3768H8.37734V42.674H11.7529C11.8917 42.674 12.0023 42.791 12.0023 42.9309C12.0023 43.0851 11.8974 43.1993 11.7529 43.1993H8.37734V46.5079H12.229C12.3707 46.5079 12.4784 46.6192 12.4784 46.7648C12.4784 46.9161 12.3679 47.0331 12.229 47.0331M8.13927 39.0914C8.1166 39.0914 8.10243 39.0971 8.10243 39.117V46.7648L8.15061 46.7905H12.229V46.7505H8.14494V42.9566H11.7557V42.9167H8.14494V39.1342H12.229C12.2432 39.1056 12.2375 39.0942 12.229 39.0942H8.13927V39.0914Z" stroke="#003135" stroke-miterlimit="10" stroke-linejoin="round"/>
<path d="M15.2618 46.6298C17.2457 46.6069 18.8329 44.9741 18.8442 42.9301C18.8329 40.909 17.2457 39.2532 15.2618 39.2532H13.9184V46.6298H15.2618ZM13.6406 39.1162C13.6406 39.0363 13.6945 38.9678 13.7823 38.9678H15.2589C17.3959 38.9678 19.1163 40.7491 19.1163 42.9272C19.1163 45.1282 17.3959 46.9095 15.2589 46.9095H13.7937H13.7823C13.6945 46.9095 13.6406 46.841 13.6406 46.764V39.1162Z" stroke="#003135" stroke-miterlimit="10" stroke-linejoin="round"/>
<path d="M15.2608 47.036H13.7955C13.6368 47.036 13.5234 46.9189 13.5234 46.7676V39.1199C13.5234 38.9658 13.6368 38.8516 13.7842 38.8516H15.2608C17.4516 38.8516 19.2372 40.6843 19.2372 42.9338C19.2372 45.1976 17.4545 47.0388 15.2608 47.0388M14.0336 46.5079H15.2608C17.1937 46.485 18.7157 44.9149 18.727 42.9281C18.7157 40.9697 17.1625 39.374 15.2636 39.374H14.0364V46.5079H14.0336ZM15.2608 46.7505H13.7984V39.1313H15.2608C17.2901 39.1313 18.9481 40.8356 18.9594 42.9281C18.9481 45.0491 17.3241 46.7248 15.2608 46.7505ZM13.7955 39.0914C13.7757 39.0914 13.7587 39.0914 13.7587 39.117V46.7648C13.7587 46.7905 13.7785 46.7905 13.7842 46.7905H15.2608C17.3241 46.7905 19.0019 45.0577 19.0019 42.9281C19.0019 40.8099 17.3241 39.0885 15.2608 39.0885H13.7955V39.0914Z" stroke="#003135" stroke-miterlimit="10" stroke-linejoin="round"/>
<path d="M20.2188 39.1162C20.2188 39.0249 20.2726 38.9678 20.3633 38.9678C20.4285 38.9678 20.4965 39.0249 20.4965 39.1162V46.764C20.4965 46.8553 20.4313 46.9095 20.3633 46.9095C20.2754 46.9095 20.2188 46.8525 20.2188 46.764V39.1162Z" stroke="#003135" stroke-miterlimit="10" stroke-linejoin="round"/>
<path d="M20.3623 39.0914C20.3396 39.0914 20.3368 39.0914 20.3368 39.117V46.7648C20.3368 46.7876 20.3368 46.7905 20.3623 46.7905L20.3765 39.117C20.3765 39.0942 20.3651 39.0914 20.3623 39.0914ZM20.3623 47.036C20.2093 47.036 20.1016 46.9246 20.1016 46.7676V39.1199C20.1016 38.96 20.2093 38.8516 20.3623 38.8516C20.5012 38.8516 20.6117 38.9715 20.6117 39.1199V46.7676C20.6117 46.9189 20.5012 47.036 20.3623 47.036Z" stroke="#003135" stroke-miterlimit="10" stroke-linejoin="round"/>
<path d="M23.2033 44.4615H26.8424L25.0228 39.4914L23.2033 44.4615ZM26.9529 44.7584H23.0956L22.3559 46.7881C22.3445 46.8452 22.2907 46.8908 22.234 46.8908C22.2227 46.8908 22.2 46.8794 22.1801 46.8794C22.115 46.8452 22.0809 46.7652 22.115 46.6881L24.8925 39.0632C24.9151 38.9947 24.969 38.9605 25.0342 38.9719C25.0909 38.9719 25.1447 39.0061 25.1759 39.0632L27.9534 46.6881C27.9874 46.7681 27.9421 46.8452 27.8769 46.8794C27.8542 46.8794 27.8429 46.8908 27.8344 46.8908C27.7777 46.8908 27.7238 46.8452 27.6898 46.7881L26.9501 44.7584H26.9529Z" stroke="#003135" stroke-miterlimit="10" stroke-linejoin="round"/>
<path d="M22.2173 46.7623C22.2173 46.7623 22.2372 46.768 22.2428 46.7708L23.0081 44.6384H27.0298L27.7978 46.748C27.8035 46.7537 27.8148 46.7623 27.8233 46.768C27.8262 46.768 27.829 46.768 27.8318 46.768C27.8404 46.7594 27.846 46.7508 27.8432 46.7394L25.0628 39.106C25.0628 39.106 25.043 39.0945 25.0317 39.0945L25.0005 39.106L22.223 46.7337C22.2173 46.748 22.2173 46.7594 22.223 46.7651M23.368 44.3415H26.6642L25.0147 39.8368L23.3652 44.3415H23.368ZM27.0071 44.5841H23.0279L25.0175 39.1488L27.0071 44.5841ZM27.829 47.0135C27.7355 47.0135 27.642 46.9507 27.5853 46.8508L26.8654 44.8782H23.1724L22.4611 46.8308C22.4441 46.925 22.342 47.0135 22.2287 47.0135L22.1493 47.0049L22.121 46.9906C21.9962 46.925 21.9424 46.7765 21.9991 46.6424L24.7738 39.0203C24.8134 38.9004 24.924 38.8291 25.0458 38.8519C25.1224 38.8462 25.2187 38.9061 25.2726 39.0003L28.0586 46.6452C28.1124 46.7708 28.0557 46.9221 27.9254 46.9878L27.829 47.0135Z" stroke="#003135" stroke-miterlimit="10" stroke-linejoin="round"/>
<path d="M29.8509 39.2532H27.3058C27.2292 39.2532 27.1641 39.1961 27.1641 39.1162C27.1641 39.0363 27.2292 38.9678 27.3058 38.9678H32.6737C32.7616 38.9678 32.8183 39.0363 32.8183 39.1162C32.8183 39.1961 32.7616 39.2532 32.6737 39.2532H30.14V46.7668C30.14 46.8467 30.0634 46.9153 29.9983 46.9153C29.9104 46.9153 29.8537 46.8467 29.8537 46.7668V39.2532H29.8509Z" stroke="#003135" stroke-miterlimit="10" stroke-linejoin="round"/>
<path d="M27.3076 39.0914C27.3076 39.0914 27.2821 39.1056 27.2821 39.117L29.9718 39.1313V46.7648C29.9718 46.7905 29.9916 46.7905 29.9973 46.7905C30.0058 46.7905 30.0228 46.7734 30.0228 46.7648V39.1313H32.6756C32.7011 39.0914 32.6841 39.0914 32.6756 39.0914H27.3076ZM29.9973 47.036C29.8499 47.036 29.7365 46.9189 29.7365 46.7676V39.3768H27.3076C27.1631 39.3768 27.0469 39.2626 27.0469 39.1199C27.0469 38.9743 27.1659 38.8516 27.3076 38.8516H32.6756C32.823 38.8516 32.9363 38.9686 32.9363 39.1199C32.9363 39.2683 32.8258 39.3768 32.6756 39.3768H30.258V46.7676C30.258 46.9075 30.1333 47.036 29.9973 47.036Z" stroke="#003135" stroke-miterlimit="10" stroke-linejoin="round"/>
<path d="M34.0938 39.1162C34.0938 39.0249 34.1504 38.9678 34.2383 38.9678C34.3035 38.9678 34.3715 39.0249 34.3715 39.1162V46.764C34.3715 46.8553 34.3063 46.9095 34.2383 46.9095C34.1504 46.9095 34.0938 46.8525 34.0938 46.764V39.1162Z" stroke="#003135" stroke-miterlimit="10" stroke-linejoin="round"/>
<path d="M34.2373 39.0914C34.2146 39.0914 34.2118 39.0914 34.2118 39.117V46.7648C34.2118 46.7876 34.2118 46.7905 34.2373 46.7905L34.2515 39.117C34.2515 39.0942 34.2401 39.0914 34.2373 39.0914ZM34.2373 47.036C34.0843 47.036 33.9766 46.9246 33.9766 46.7676V39.1199C33.9766 38.96 34.0843 38.8516 34.2373 38.8516C34.3762 38.8516 34.4867 38.9715 34.4867 39.1199V46.7676C34.4867 46.9189 34.3762 47.036 34.2373 47.036Z" stroke="#003135" stroke-miterlimit="10" stroke-linejoin="round"/>
<path d="M39.9144 46.7525C41.7991 46.7297 43.3636 45.0511 43.3749 42.9501C43.3636 40.8405 41.7991 39.1476 39.9144 39.1476C38.0183 39.1476 36.4538 40.8405 36.4538 42.9501C36.4538 45.0483 38.0183 46.7297 39.9144 46.7525ZM39.9144 38.8564C41.9975 38.8564 43.6612 40.6835 43.6839 42.9529C43.6612 45.2338 41.9975 47.0608 39.9144 47.0608C37.8313 47.0608 36.1676 45.2338 36.1562 42.9529C36.1676 40.6835 37.8313 38.8564 39.9144 38.8564Z" stroke="#003135" stroke-miterlimit="10" stroke-linejoin="round"/>
<path d="M39.9162 39.2711C38.074 39.2711 36.5719 40.9211 36.5719 42.9508C36.5719 44.9576 38.0712 46.6076 39.9162 46.6305C41.75 46.6076 43.2492 44.9576 43.2606 42.9508C43.2492 40.9239 41.75 39.2711 39.9162 39.2711ZM39.9162 46.876C37.9436 46.8531 36.3395 45.0918 36.3395 42.9536C36.3395 40.7898 37.9436 39.0313 39.9191 39.0313C41.8803 39.0313 43.4873 40.7898 43.4986 42.9536C43.4873 45.0946 41.8832 46.8531 39.9219 46.8788L39.9162 46.876ZM39.9162 38.977C37.9181 38.977 36.2856 40.7612 36.2743 42.9536C36.2856 45.1889 37.8841 46.9388 39.9162 46.9388C41.9427 46.9388 43.5468 45.186 43.5695 42.9508C43.5468 40.7241 41.9427 38.977 39.9162 38.977ZM39.9162 47.1814C37.7537 47.1814 36.0504 45.323 36.0391 42.9536C36.0504 40.627 37.7906 38.7344 39.9162 38.7344C42.0731 38.7344 43.7792 40.5871 43.8047 42.9508C43.7821 45.323 42.0731 47.1814 39.9162 47.1814Z" stroke="#003135" stroke-miterlimit="10" stroke-linejoin="round"/>
<path d="M44.9731 39.5598V46.765C44.9731 46.845 44.9192 46.9135 44.8399 46.9135C44.7747 46.9135 44.6953 46.845 44.6953 46.765V39.1744V39.1401C44.6953 39.0944 44.718 39.0488 44.752 39.0145C44.8285 38.9688 44.905 38.9803 44.9504 39.0373L50.0434 46.3225V39.1744C50.0434 39.0944 50.12 39.0259 50.1851 39.0259C50.2617 39.0259 50.3183 39.0944 50.3183 39.1744V46.765C50.3183 46.845 50.2645 46.9135 50.1851 46.9135C50.1285 46.9135 50.0746 46.8792 50.0519 46.8221C50.0519 46.8221 50.0482 46.8183 50.0406 46.8107L44.9702 39.5598H44.9731Z" stroke="#003135" stroke-miterlimit="10" stroke-linejoin="round"/>
<path d="M44.8325 39.1112C44.8325 39.1112 44.8212 39.134 44.8212 39.1397V46.7675C44.8212 46.7675 44.8382 46.7903 44.8495 46.7932L44.8637 39.1854L50.1211 46.7018H50.1409L50.1721 46.776L50.209 46.7646V39.1711C50.209 39.1711 50.2033 39.1454 50.1948 39.1454C50.1863 39.1454 50.1693 39.1625 50.1693 39.1711V46.6961L44.8637 39.1054C44.858 39.0997 44.8438 39.1054 44.8353 39.1083M50.192 47.0358C50.1154 47.0358 50.0446 47.0016 49.9964 46.9445H49.9426L49.9341 46.856L45.0961 39.9362V46.7675C45.0961 46.9188 44.9856 47.0358 44.8467 47.0358C44.7106 47.0358 44.5859 46.9073 44.5859 46.7675V39.1397C44.5859 39.0626 44.6171 38.9884 44.6738 38.9285L44.6993 38.9085C44.8268 38.8342 44.9657 38.8542 45.0479 38.9627L49.9312 45.9482V39.174C49.9312 39.0341 50.0559 38.9056 50.192 38.9056C50.3308 38.9056 50.4414 39.0255 50.4414 39.174V46.7675C50.4414 46.9188 50.3308 47.0358 50.192 47.0358Z" stroke="#003135" stroke-miterlimit="10" stroke-linejoin="round"/>
<path d="M55.4574 42.1679C55.1059 41.8282 54.8849 41.3514 54.8849 40.8062C54.8849 39.7842 55.6898 38.9678 56.6591 38.9678C57.6284 38.9678 58.4559 39.7842 58.4559 40.8062C58.4559 40.8861 58.3993 40.9546 58.3142 40.9546C58.249 40.9546 58.1697 40.8861 58.1697 40.8062C58.1697 39.9441 57.498 39.2532 56.6591 39.2532C55.8428 39.2532 55.1711 39.9441 55.1711 40.8062C55.1711 41.3286 55.4035 41.7939 55.7975 42.0765C55.8088 42.088 55.8201 42.1108 55.8315 42.1222C55.8315 42.1336 55.8428 42.1336 55.8428 42.1336C55.8655 42.2021 55.8428 42.2707 55.7861 42.3049C55.7635 42.3278 55.7436 42.3392 55.7209 42.3392C55.0039 42.7246 54.5192 43.4953 54.5192 44.3717C54.5192 45.6192 55.4999 46.6298 56.7129 46.6298C57.9373 46.6298 58.9179 45.6192 58.9179 44.3717C58.9179 44.1548 58.8839 43.9407 58.8301 43.7351H58.7649C58.6203 43.7123 58.5126 43.7123 58.3794 43.7123C57.6312 43.7123 57.2231 43.9064 57.002 44.1205C56.7923 44.3375 56.7384 44.6087 56.7384 44.8228C56.7384 44.9141 56.7498 44.9826 56.7498 45.0397C56.7611 45.0968 56.7611 45.1082 56.7611 45.1082C56.7951 45.1996 56.7498 45.2652 56.6846 45.2995H56.6392C56.5854 45.2995 56.5287 45.2652 56.4975 45.1967C56.4975 45.1967 56.455 45.0369 56.455 44.8228C56.455 44.563 56.5088 44.209 56.8064 43.915C57.104 43.6295 57.5887 43.4268 58.3823 43.4268C58.5155 43.4268 58.6345 43.4268 58.779 43.4382H58.8442C59.0426 43.4382 59.2183 43.3811 59.3629 43.2784C59.5046 43.1642 59.5839 43.0072 59.6066 42.7331C59.6066 42.6304 59.5839 42.5276 59.5641 42.4048C59.5301 42.3363 59.5868 42.245 59.6633 42.2336C59.7398 42.2221 59.8163 42.2564 59.8277 42.3477C59.8617 42.4733 59.873 42.6075 59.873 42.7331C59.8844 43.0843 59.7398 43.3583 59.5301 43.5182C59.4082 43.6209 59.2665 43.6894 59.122 43.7094C59.1758 43.9235 59.1985 44.1405 59.1985 44.3689C59.1985 45.7762 58.096 46.9095 56.7186 46.9095C55.3525 46.9095 54.25 45.7734 54.25 44.3689C54.25 43.4382 54.7346 42.6104 55.463 42.1679" fill="#003135"/>
<path d="M56.7116 47.1555C55.2208 47.1555 54.0078 45.9052 54.0078 44.3722C54.0078 43.4844 54.4188 42.6479 55.0961 42.1255C54.8042 41.7544 54.6483 41.2948 54.6483 40.8067C54.6483 39.6591 55.5496 38.7256 56.6578 38.7256C57.7773 38.7256 58.6899 39.6591 58.6899 40.8067C58.6899 41.0265 58.5227 41.1978 58.3101 41.1978C58.1089 41.1978 57.9303 41.0151 57.9303 40.8067C57.9303 40.0844 57.3578 39.4935 56.6549 39.4935C55.9662 39.4935 55.4022 40.0816 55.4022 40.8067C55.4022 41.2491 55.595 41.6402 55.9294 41.88L55.9492 41.8943H56.0116L56.0796 42.0399L56.0711 42.0884C56.1108 42.2454 56.0569 42.4053 55.9322 42.4995C55.8869 42.5423 55.8387 42.5623 55.7962 42.5766C55.15 42.9391 54.7532 43.6243 54.7532 44.375C54.7532 45.4855 55.6318 46.3905 56.7116 46.3905C57.7971 46.3905 58.6814 45.4855 58.6814 44.375C58.6814 44.2437 58.6672 44.1067 58.6389 43.9668C58.5397 43.9582 58.4632 43.9554 58.3753 43.9582C57.6582 43.9582 57.3181 44.1438 57.1594 44.3008C57.0007 44.4635 56.9695 44.6776 56.9695 44.8289C56.9695 44.8718 56.9724 44.9089 56.9752 44.9403C56.9752 44.9774 56.9809 45.0088 56.9809 45.0373C57.0461 45.2286 56.9639 45.4256 56.7853 45.5198L56.6805 45.5455C56.4906 45.5455 56.3545 45.457 56.2837 45.3114C56.261 45.2486 56.2128 45.0687 56.2128 44.8261C56.2128 44.3865 56.3574 44.0239 56.6379 43.7441C57.0971 43.3074 57.8141 43.119 58.7919 43.2018H58.8401C58.9846 43.2018 59.1179 43.1618 59.2227 43.0847C59.2907 43.0305 59.3474 42.942 59.3644 42.7193C59.3644 42.6679 59.3474 42.5937 59.3333 42.5109C59.2964 42.4196 59.2992 42.3025 59.3503 42.1998C59.4041 42.0941 59.5061 42.0199 59.6195 42.0028C59.7272 41.9856 59.8321 42.0113 59.9143 42.0741C59.9908 42.1341 60.039 42.2226 60.0503 42.3225C60.0786 42.4224 60.0957 42.5737 60.0957 42.7393C60.107 43.139 59.9483 43.4958 59.6592 43.7185C59.577 43.787 59.4835 43.8441 59.3871 43.8869C59.4126 44.041 59.4239 44.2038 59.4239 44.375C59.4239 45.9109 58.2052 47.1584 56.7088 47.1584" fill="#003135"/>
<path d="M63.8886 44.4615H67.5277L65.7082 39.4914L63.8886 44.4615ZM67.6354 44.7584H63.7781L63.0384 46.7881C63.0271 46.8452 62.9732 46.8908 62.9165 46.8908C62.9052 46.8908 62.8825 46.8794 62.8598 46.8794C62.7946 46.8452 62.7606 46.7652 62.7946 46.6881L65.5722 39.0632C65.5948 38.9947 65.6487 38.9605 65.7139 38.9719C65.7677 38.9719 65.8244 39.0061 65.8556 39.0632L68.6331 46.6881C68.6671 46.7681 68.6217 46.8452 68.5566 46.8794C68.5339 46.8794 68.5225 46.8908 68.5112 46.8908C68.4574 46.8908 68.4007 46.8452 68.3695 46.7881L67.6298 44.7584H67.6354Z" stroke="#003135" stroke-miterlimit="10" stroke-linejoin="round"/>
<path d="M62.9093 46.7623C62.9093 46.7623 62.9291 46.768 62.9348 46.7708L63.7 44.6384H67.7217L68.4898 46.748C68.4955 46.7537 68.5068 46.7623 68.5153 46.768C68.5153 46.768 68.521 46.768 68.5238 46.768C68.5323 46.7594 68.5408 46.7508 68.5351 46.7394L65.7548 39.106C65.7548 39.106 65.7321 39.0945 65.7208 39.0945L65.6896 39.106L62.9121 46.7337C62.9064 46.748 62.9064 46.7594 62.9121 46.7651M64.0599 44.3415H67.3561L65.7066 39.8368L64.0571 44.3415H64.0599ZM67.6962 44.5841H63.7198L65.7094 39.1488L67.699 44.5841H67.6962ZM68.5181 47.0135C68.4246 47.0135 68.3311 46.9507 68.2744 46.8508L67.5545 44.8782H63.8587L63.1473 46.8308C63.1303 46.925 63.0283 47.0135 62.9149 47.0135L62.8356 47.0049L62.8072 46.9906C62.6825 46.925 62.6315 46.7765 62.6854 46.6424L65.4629 39.0203C65.4997 38.9004 65.6131 38.8291 65.7349 38.8519C65.8256 38.8462 65.9078 38.9061 65.9589 39.0003L68.7449 46.6452C68.7987 46.7708 68.742 46.9221 68.6117 46.9878L68.5153 47.0135H68.5181Z" stroke="#003135" stroke-miterlimit="10" stroke-linejoin="round"/>
<path d="M73.5179 45.1997C73.5179 44.643 73.2742 44.2576 72.9681 43.975C72.6591 43.6924 72.285 43.5439 72.0413 43.4526C71.8656 43.3955 71.755 43.3841 71.755 43.3841H69.6606V46.7669C69.6606 46.8468 69.6039 46.9153 69.5274 46.9153C69.4508 46.9153 69.3828 46.8468 69.3828 46.7669V39.1192C69.3828 39.0392 69.448 38.9707 69.5274 38.9707H71.7862C72.9652 38.9707 73.9345 39.9584 73.9345 41.1831C73.9345 42.1937 73.2827 43.0329 72.3927 43.2927C72.5259 43.3498 72.6563 43.4183 72.7895 43.4983C73.2742 43.7837 73.7928 44.3261 73.7928 45.1997C73.7928 45.8448 73.8807 46.1988 73.9572 46.3558C74.0564 46.5157 74.1102 46.4928 74.1216 46.4928H74.1442C74.2094 46.4814 74.2973 46.5271 74.3086 46.5956C74.3313 46.6641 74.2973 46.7555 74.2208 46.7669C74.2094 46.7897 74.1754 46.7897 74.1216 46.7897C74.011 46.7897 73.8353 46.7098 73.7248 46.4843C73.5916 46.2588 73.5151 45.8819 73.5151 45.2025M71.789 43.0872H71.8117C72.8264 43.0758 73.6511 42.2479 73.6511 41.1802C73.6511 40.1126 72.815 39.2505 71.789 39.2505H69.6606V43.0843H71.789V43.0872Z" stroke="#003135" stroke-miterlimit="10" stroke-linejoin="round"/>
<path d="M69.5342 47.036C69.3925 47.036 69.2734 46.9132 69.2734 46.7676V39.1199C69.2734 38.9743 69.3925 38.8516 69.5342 38.8516H71.793C73.0429 38.8516 74.0604 39.8992 74.0604 41.1867C74.0604 42.1316 73.5276 42.9538 72.7085 43.3135C72.7567 43.3392 72.8077 43.3677 72.8559 43.3962C73.2526 43.6275 73.9158 44.1727 73.9158 45.2033C73.9158 45.9141 74.0235 46.211 74.0689 46.308C74.1057 46.368 74.1312 46.3794 74.1312 46.3794C74.1908 46.368 74.2559 46.3794 74.3126 46.4137C74.3778 46.4508 74.4203 46.5136 74.4317 46.5821C74.4515 46.6363 74.443 46.7163 74.4033 46.7819C74.375 46.8276 74.3381 46.8618 74.29 46.879C74.2446 46.9161 74.1823 46.9161 74.1284 46.9161C73.981 46.9161 73.76 46.819 73.6268 46.5421C73.4737 46.2823 73.4057 45.8656 73.4057 45.2061C73.4057 44.7579 73.2385 44.3868 72.8927 44.07C72.5866 43.7902 72.2068 43.6475 72.0056 43.5704C71.8497 43.5219 71.7477 43.5104 71.7477 43.5104H69.7836V46.7734C69.7836 46.9247 69.6731 47.0417 69.5342 47.0417M69.7836 42.968H71.8157C72.7822 42.9566 73.5389 42.1744 73.5389 41.1838C73.5389 40.1876 72.7567 39.3768 71.793 39.3768H69.7836V42.968ZM71.8157 43.2107H69.5484V39.1313H71.793C72.8842 39.1313 73.7741 40.0505 73.7741 41.181C73.7741 42.3058 72.9154 43.1964 71.8185 43.2078L71.8157 43.2107ZM69.554 39.0914C69.52 39.0914 69.5058 39.1056 69.5058 39.117V46.7648C69.5058 46.7648 69.52 46.7905 69.5313 46.7905L69.5455 43.2621H71.7562C71.7732 43.2621 71.8922 43.2763 72.0765 43.3363C72.2833 43.4134 72.7056 43.5704 73.0457 43.8844C73.4425 44.2498 73.6353 44.6809 73.6353 45.2004C73.6353 45.8056 73.6976 46.1938 73.828 46.4194C73.9328 46.6335 74.0802 46.6677 74.1397 46.6649L74.1454 46.6535L74.2049 46.6449L74.1936 46.6135C74.1936 46.6135 74.1766 46.6135 74.1652 46.6135H74.1227C74.032 46.6249 73.947 46.5678 73.8592 46.4222C73.7855 46.2738 73.6749 45.9341 73.6749 45.2004C73.6749 44.2898 73.0826 43.8102 72.7311 43.6018C72.6064 43.5247 72.4789 43.459 72.3457 43.4048L72.0368 43.2706L72.3599 43.1764C73.2328 42.9224 73.8166 42.1202 73.8166 41.1838C73.8166 40.0305 72.9069 39.0914 71.7845 39.0914H69.5455H69.554Z" stroke="#003135" stroke-miterlimit="10" stroke-linejoin="round"/>
<path d="M77.9666 46.6298C79.0039 46.6298 79.8173 45.7677 79.8173 44.7C79.8173 43.6323 79.0011 42.7931 77.9666 42.7931H75.8296V46.6298H77.9666ZM77.4621 42.4876C78.3322 42.4876 79.0266 41.7739 79.0379 40.8776C79.0266 39.9926 78.3322 39.2761 77.4621 39.2561H75.8296V42.4905H77.4621V42.4876ZM75.5547 39.1162C75.5547 39.0363 75.6114 38.9678 75.6992 38.9678H77.4621C78.4881 38.9678 79.3242 39.8299 79.3242 40.8747C79.3242 41.5998 78.9387 42.2136 78.3662 42.5419C79.3582 42.7331 80.1092 43.6295 80.1092 44.6971C80.1092 45.9218 79.1626 46.9095 77.9723 46.9095H75.7247H75.7021C75.6142 46.9095 75.5575 46.841 75.5575 46.764V39.1162H75.5547Z" stroke="#003135" stroke-miterlimit="10" stroke-linejoin="round"/>
<path d="M77.4533 42.6083H75.7046V39.1313H77.4533C78.3942 39.157 79.1368 39.9221 79.1481 40.8727C79.1368 41.8461 78.3942 42.6055 77.4533 42.6055M77.9606 46.7505H75.7046V42.6712H77.9606C79.0461 42.6712 79.9304 43.5818 79.9304 44.698C79.9304 45.8284 79.0461 46.7477 77.9606 46.7477M77.9606 47.036H75.7131C75.5459 47.036 75.4297 46.9189 75.4297 46.7676V39.1199C75.4297 38.9658 75.5431 38.8516 75.6904 38.8516H77.4533C78.5445 38.8516 79.4344 39.7622 79.4344 40.8812C79.4344 41.5293 79.1453 42.1173 78.6493 42.4999C79.5733 42.8025 80.2195 43.6903 80.2195 44.7037C80.2195 45.9912 79.2077 47.0388 77.9635 47.0388M75.9398 42.3657H77.4533C78.261 42.3657 78.9016 41.712 78.9129 40.8755C78.9016 40.0562 78.261 39.3968 77.4505 39.3768H75.9398V42.3686V42.3657ZM75.9398 46.5079H77.9606C78.9327 46.5079 79.6951 45.7143 79.6951 44.7008C79.6951 43.716 78.9186 42.9167 77.9606 42.9167H75.9398V46.5107V46.5079ZM75.7131 39.0914C75.6848 39.0914 75.6649 39.0914 75.6649 39.117V46.7648C75.6649 46.7905 75.6848 46.7905 75.6904 46.7905H77.9606C79.0745 46.7905 79.9814 45.8513 79.9814 44.698C79.9814 43.7045 79.2899 42.8453 78.3376 42.6597L78.0173 42.5969L78.3007 42.4342C78.8647 42.1116 79.1992 41.5264 79.1992 40.8727C79.1992 39.8878 78.4169 39.0885 77.4533 39.0885H75.7103L75.7131 39.0914Z" stroke="#003135" stroke-miterlimit="10" stroke-linejoin="round"/>
<path d="M81.1875 39.1162C81.1875 39.0249 81.2414 38.9678 81.332 38.9678C81.3972 38.9678 81.4653 39.0249 81.4653 39.1162V46.764C81.4653 46.8553 81.4001 46.9095 81.332 46.9095C81.2442 46.9095 81.1875 46.8525 81.1875 46.764V39.1162Z" stroke="#003135" stroke-miterlimit="10" stroke-linejoin="round"/>
<path d="M81.3311 39.0914C81.3084 39.0914 81.3055 39.0914 81.3055 39.117V46.7648C81.3055 46.7876 81.3055 46.7905 81.3311 46.7905L81.3452 39.117C81.3452 39.0942 81.3339 39.0914 81.3311 39.0914ZM81.3311 47.036C81.178 47.036 81.0703 46.9246 81.0703 46.7676V39.1199C81.0703 38.96 81.178 38.8516 81.3311 38.8516C81.4699 38.8516 81.5805 38.9715 81.5805 39.1199V46.7676C81.5805 46.9189 81.4699 47.036 81.3311 47.036Z" stroke="#003135" stroke-miterlimit="10" stroke-linejoin="round"/>
<path d="M85.679 39.2532H83.1339C83.0574 39.2532 82.9922 39.1961 82.9922 39.1162C82.9922 39.0363 83.0574 38.9678 83.1339 38.9678H88.5019C88.5897 38.9678 88.6436 39.0363 88.6436 39.1162C88.6436 39.1961 88.5897 39.2532 88.5019 39.2532H85.9681V46.7668C85.9681 46.8467 85.8916 46.9153 85.8264 46.9153C85.7385 46.9153 85.6818 46.8467 85.6818 46.7668V39.2532H85.679Z" stroke="#003135" stroke-miterlimit="10" stroke-linejoin="round"/>
<path d="M83.1357 39.0914C83.1357 39.0914 83.1102 39.1056 83.1102 39.117L85.7999 39.1313V46.7648C85.7999 46.7905 85.8197 46.7905 85.8254 46.7905C85.8339 46.7905 85.8509 46.7734 85.8509 46.7648V39.1313H88.5037C88.5292 39.0914 88.5122 39.0914 88.5037 39.0914H83.1357ZM85.8254 47.036C85.678 47.036 85.5646 46.9189 85.5646 46.7676V39.3768H83.1357C82.9912 39.3768 82.875 39.2626 82.875 39.1199C82.875 38.9743 82.994 38.8516 83.1357 38.8516H88.5037C88.6511 38.8516 88.7644 38.9686 88.7644 39.1199C88.7644 39.2683 88.6539 39.3768 88.5037 39.3768H86.0861V46.7676C86.0861 46.9075 85.9614 47.036 85.8254 47.036Z" stroke="#003135" stroke-miterlimit="10" stroke-linejoin="round"/>
<path d="M93.8304 45.1997C93.8304 44.643 93.5867 44.2576 93.2777 43.975C92.9688 43.6924 92.5947 43.5439 92.3509 43.4526C92.1752 43.3955 92.0647 43.3841 92.0647 43.3841H89.9702V46.7669C89.9702 46.8468 89.9135 46.9153 89.837 46.9153C89.7605 46.9153 89.6953 46.8468 89.6953 46.7669V39.1192C89.6953 39.0392 89.7605 38.9707 89.837 38.9707H92.0959C93.2749 38.9707 94.2442 39.9584 94.2442 41.1831C94.2442 42.1937 93.5923 43.0329 92.7024 43.2927C92.8356 43.3498 92.966 43.4183 93.0992 43.4983C93.5838 43.7837 94.1025 44.3261 94.1025 45.1997C94.1025 45.8448 94.1903 46.1988 94.2669 46.3558C94.3661 46.5157 94.4199 46.4928 94.4312 46.4928H94.4539C94.5191 46.4814 94.607 46.5271 94.6183 46.5956C94.641 46.6641 94.607 46.7555 94.5304 46.7669C94.5191 46.7897 94.4851 46.7897 94.4312 46.7897C94.3207 46.7897 94.145 46.7098 94.0345 46.4843C93.9013 46.2588 93.8247 45.8819 93.8247 45.2025M92.0987 43.0872H92.1214C93.136 43.0758 93.9608 42.2479 93.9608 41.1802C93.9608 40.1126 93.1247 39.2505 92.0987 39.2505H89.9702V43.0843H92.0987V43.0872Z" stroke="#003135" stroke-miterlimit="10" stroke-linejoin="round"/>
<path d="M89.8389 47.036C89.6972 47.036 89.5781 46.9132 89.5781 46.7676V39.1199C89.5781 38.9743 89.6972 38.8516 89.8389 38.8516H92.0977C93.3476 38.8516 94.3651 39.8992 94.3651 41.1867C94.3651 42.1316 93.8322 42.9538 93.0132 43.3135C93.0642 43.3392 93.1124 43.3677 93.1605 43.3962C93.5573 43.6275 94.2205 44.1727 94.2205 45.2033C94.2205 45.9141 94.3282 46.211 94.3736 46.308C94.4104 46.368 94.4359 46.3794 94.4359 46.3794C94.4954 46.368 94.5606 46.3794 94.6173 46.4137C94.6825 46.4508 94.725 46.5136 94.7363 46.5821C94.7562 46.6363 94.7449 46.7163 94.708 46.7819C94.6797 46.8276 94.64 46.8618 94.5946 46.879C94.5493 46.9161 94.4869 46.9161 94.4331 46.9161C94.2857 46.9161 94.0646 46.819 93.9314 46.5421C93.7784 46.2823 93.7104 45.8656 93.7104 45.2061C93.7104 44.7579 93.5432 44.3868 93.1974 44.07C92.8913 43.7902 92.5115 43.6475 92.3103 43.5704C92.1544 43.5219 92.0524 43.5104 92.0524 43.5104H90.0883V46.7734C90.0883 46.9247 89.9777 47.0417 89.8389 47.0417M90.0883 42.968H92.1204C93.0869 42.9566 93.8436 42.1744 93.8436 41.1838C93.8436 40.1876 93.0613 39.3768 92.0977 39.3768H90.0883V42.968ZM92.1204 43.2107H89.853V39.1313H92.0977C93.1889 39.1313 94.0788 40.0505 94.0788 41.181C94.0788 42.3058 93.2201 43.1964 92.1232 43.2078L92.1204 43.2107ZM89.8615 39.0914C89.8275 39.0914 89.8134 39.1056 89.8134 39.117V46.7648C89.8134 46.7648 89.8275 46.7905 89.8389 46.7905L89.853 43.2621H92.0637C92.0807 43.2621 92.1997 43.2763 92.384 43.3363C92.5909 43.4134 93.0132 43.5704 93.3533 43.8844C93.7501 44.2498 93.9428 44.6809 93.9428 45.2004C93.9428 45.8056 94.0051 46.1938 94.1355 46.4194C94.2404 46.6335 94.3877 46.6677 94.4473 46.6649L94.4529 46.6535L94.5125 46.6449L94.5011 46.6135C94.5011 46.6135 94.4841 46.6135 94.4728 46.6135H94.4303C94.3396 46.6249 94.2545 46.5678 94.1667 46.4222C94.093 46.2738 93.9825 45.9341 93.9825 45.2004C93.9825 44.2898 93.3901 43.8102 93.0387 43.6018C92.914 43.5247 92.7864 43.459 92.6532 43.4048L92.3443 43.2706L92.6674 43.1764C93.5403 42.9224 94.1242 42.1202 94.1242 41.1838C94.1242 40.0305 93.2116 39.0914 92.0921 39.0914H89.8559H89.8615Z" stroke="#003135" stroke-miterlimit="10" stroke-linejoin="round"/>
<path d="M96.4455 44.4615H100.082L98.2622 39.4914L96.4426 44.4615H96.4455ZM100.195 44.7584H96.3378L95.598 46.7881C95.5867 46.8452 95.5329 46.8908 95.4762 46.8908C95.4648 46.8908 95.4422 46.8794 95.4223 46.8794C95.3571 46.8452 95.3231 46.7652 95.3571 46.6881L98.1347 39.0632C98.1573 38.9947 98.2112 38.9605 98.2764 38.9719C98.3302 38.9719 98.3869 39.0061 98.4181 39.0632L101.196 46.6881C101.23 46.7681 101.184 46.8452 101.119 46.8794C101.096 46.8794 101.085 46.8908 101.074 46.8908C101.02 46.8908 100.963 46.8452 100.929 46.7881L100.192 44.7584H100.195Z" stroke="#003135" stroke-miterlimit="10" stroke-linejoin="round"/>
<path d="M95.4595 46.7623C95.4595 46.7623 95.4793 46.768 95.485 46.7708L96.2502 44.6384H100.272L101.04 46.748C101.046 46.7537 101.057 46.7623 101.066 46.768C101.068 46.768 101.071 46.768 101.074 46.768C101.083 46.7594 101.088 46.7508 101.085 46.7394L98.305 39.106C98.305 39.106 98.2824 39.0945 98.271 39.0945L98.2398 39.106L95.4623 46.7337C95.4567 46.748 95.4567 46.7594 95.4623 46.7651M96.6102 44.3415H99.9063L98.2569 39.8368L96.6074 44.3415H96.6102ZM100.249 44.5841H96.2729L98.2625 39.1488L100.252 44.5841H100.249ZM101.071 47.0135C100.978 47.0135 100.884 46.9507 100.827 46.8508L100.108 44.8782H96.4146L95.7032 46.8308C95.6862 46.925 95.5842 47.0135 95.4708 47.0135L95.3915 47.0049L95.3631 46.9906C95.2384 46.925 95.1846 46.7765 95.2413 46.6424L98.0159 39.0203C98.0556 38.9004 98.1662 38.8291 98.288 38.8519C98.3787 38.8462 98.4581 38.9061 98.5119 39.0003L101.298 46.6452C101.352 46.7708 101.292 46.9221 101.165 46.9878L101.068 47.0135H101.071Z" stroke="#003135" stroke-miterlimit="10" stroke-linejoin="round"/>
<path d="M103.093 39.2532H100.548C100.471 39.2532 100.406 39.1961 100.406 39.1162C100.406 39.0363 100.471 38.9678 100.548 38.9678H105.916C106.004 38.9678 106.06 39.0363 106.06 39.1162C106.06 39.1961 106.004 39.2532 105.916 39.2532H103.382V46.7668C103.382 46.8467 103.306 46.9153 103.238 46.9153C103.15 46.9153 103.096 46.8467 103.096 46.7668V39.2532H103.093Z" stroke="#003135" stroke-miterlimit="10" stroke-linejoin="round"/>
<path d="M100.545 39.0914C100.545 39.0914 100.519 39.1056 100.519 39.117L103.209 39.1313V46.7648C103.209 46.7905 103.229 46.7905 103.234 46.7905C103.243 46.7905 103.26 46.7734 103.26 46.7648V39.1313H105.913C105.938 39.0914 105.921 39.0914 105.913 39.0914H100.545ZM103.232 47.036C103.084 47.036 102.971 46.9189 102.971 46.7676V39.3768H100.542C100.395 39.3768 100.281 39.2626 100.281 39.1199C100.281 38.9743 100.4 38.8516 100.542 38.8516H105.91C106.057 38.8516 106.171 38.9686 106.171 39.1199C106.171 39.2683 106.06 39.3768 105.91 39.3768H103.492V46.7676C103.492 46.9075 103.368 47.036 103.232 47.036Z" stroke="#003135" stroke-miterlimit="10" stroke-linejoin="round"/>
<path d="M107.336 39.1162C107.336 39.0249 107.39 38.9678 107.48 38.9678C107.546 38.9678 107.614 39.0249 107.614 39.1162V46.764C107.614 46.8553 107.548 46.9095 107.48 46.9095C107.393 46.9095 107.336 46.8525 107.336 46.764V39.1162Z" stroke="#003135" stroke-miterlimit="10" stroke-linejoin="round"/>
<path d="M107.479 39.0914C107.457 39.0914 107.454 39.0914 107.454 39.117V46.7648C107.454 46.7876 107.454 46.7905 107.479 46.7905L107.494 39.117C107.494 39.0942 107.482 39.0914 107.479 39.0914ZM107.479 47.036C107.326 47.036 107.219 46.9246 107.219 46.7676V39.1199C107.219 38.96 107.326 38.8516 107.479 38.8516C107.618 38.8516 107.729 38.9715 107.729 39.1199V46.7676C107.729 46.9189 107.618 47.036 107.479 47.036Z" stroke="#003135" stroke-miterlimit="10" stroke-linejoin="round"/>
<path d="M113.157 46.7525C115.041 46.7297 116.606 45.0511 116.617 42.9501C116.606 40.8405 115.041 39.1476 113.157 39.1476C111.261 39.1476 109.696 40.8405 109.696 42.9501C109.696 45.0483 111.261 46.7297 113.157 46.7525ZM113.157 38.8564C115.24 38.8564 116.903 40.6835 116.926 42.9529C116.903 45.2338 115.24 47.0608 113.157 47.0608C111.073 47.0608 109.41 45.2338 109.398 42.9529C109.41 40.6835 111.073 38.8564 113.157 38.8564Z" stroke="#003135" stroke-miterlimit="10" stroke-linejoin="round"/>
<path d="M113.158 39.2711C111.316 39.2711 109.814 40.9211 109.814 42.9508C109.814 44.9805 111.313 46.6076 113.158 46.6305C114.992 46.6076 116.491 44.9576 116.503 42.9508C116.491 40.9239 114.992 39.2711 113.158 39.2711ZM113.158 46.876C111.186 46.8531 109.582 45.0918 109.582 42.9536C109.582 40.7898 111.186 39.0313 113.161 39.0313C115.123 39.0313 116.73 40.7898 116.741 42.9536C116.73 45.0946 115.125 46.8531 113.164 46.8788L113.158 46.876ZM113.158 38.977C111.16 38.977 109.528 40.7612 109.516 42.9536C109.528 45.1889 111.126 46.9388 113.158 46.9388C115.185 46.9388 116.789 45.186 116.812 42.9508C116.789 40.7241 115.185 38.977 113.158 38.977ZM113.158 47.1814C110.996 47.1814 109.293 45.323 109.281 42.9536C109.293 40.627 111.033 38.7344 113.158 38.7344C115.315 38.7344 117.024 40.5871 117.047 42.9508C117.024 45.323 115.315 47.1814 113.158 47.1814Z" stroke="#003135" stroke-miterlimit="10" stroke-linejoin="round"/>
<path d="M118.215 39.5598V46.765C118.215 46.845 118.161 46.9135 118.082 46.9135C118.017 46.9135 117.938 46.845 117.938 46.765V39.1744V39.1401C117.938 39.0944 117.96 39.0488 117.994 39.0145C118.071 38.9688 118.147 38.9803 118.193 39.0373L123.286 46.3225V39.1744C123.286 39.0944 123.362 39.0259 123.43 39.0259C123.507 39.0259 123.563 39.0944 123.563 39.1744V46.765C123.563 46.845 123.51 46.9135 123.43 46.9135C123.373 46.9135 123.32 46.8792 123.297 46.8221C123.297 46.8221 123.293 46.8183 123.286 46.8107L118.215 39.5598Z" stroke="#003135" stroke-miterlimit="10" stroke-linejoin="round"/>
<path d="M123.434 47.0358C123.358 47.0358 123.287 47.0016 123.239 46.9445H123.185L123.176 46.856L118.338 39.9362V46.7675C118.338 46.9188 118.228 47.0358 118.089 47.0358C117.953 47.0358 117.828 46.9073 117.828 46.7675V39.1397C117.828 39.0626 117.862 38.9884 117.919 38.9285L117.944 38.9085C118.072 38.8342 118.211 38.8542 118.293 38.9627L123.176 45.9482V39.174C123.176 39.0341 123.301 38.9056 123.437 38.9056C123.576 38.9056 123.686 39.0255 123.686 39.174V46.7675C123.686 46.9188 123.576 47.0358 123.437 47.0358M118.075 39.1112C118.075 39.1112 118.063 39.134 118.063 39.1397V46.7675C118.063 46.7675 118.08 46.7903 118.092 46.7932L118.106 39.1854L123.36 46.7018H123.38L123.411 46.7789L123.448 46.7675V39.174C123.448 39.174 123.443 39.1483 123.434 39.1483C123.426 39.1483 123.409 39.1654 123.409 39.174V46.6989L118.103 39.1083C118.097 39.1026 118.086 39.1083 118.075 39.1112Z" stroke="#003135" stroke-miterlimit="10" stroke-linejoin="round"/>
<path d="M167.852 32.5721C167.342 38.1819 165.215 43.0588 161.471 47.2048L158.19 47.7634L153.519 48.1157L148.748 47.8046C146.171 47.3904 143.642 46.7194 141.16 45.7935L140.797 45.3792C140.019 44.3709 139.448 43.265 139.087 42.0636L138.945 41.5463C143.992 43.4674 149.031 43.3981 154.063 41.3382C159.229 39.2521 162.839 35.5766 164.893 30.3116C166.289 26.7336 166.181 23.1968 164.571 19.7012C167.215 23.5829 168.309 27.8732 167.852 32.5721Z" fill="#003135"/>
<path d="M176.497 27.7848C176.175 29.3442 175.799 30.898 175.369 32.4443C174.913 34.0187 174.329 35.5426 173.618 37.0214C172.451 39.4243 171.054 41.694 169.431 43.8345L168.927 44.0407C167.773 44.5111 166.573 44.7304 165.324 44.7042L164.822 44.6836C168.149 40.3352 169.647 35.387 169.31 29.8371C168.975 24.1224 166.694 19.4497 162.466 15.8192C159.595 13.3488 156.292 12.3536 152.562 12.8372C156.95 11.4708 161.253 11.7257 165.466 13.6037C170.484 15.8398 174.329 19.4291 176.999 24.3717C176.891 25.5319 176.724 26.6696 176.497 27.7885" fill="#003135"/>
<path d="M171.345 9.33257C173.21 11.2125 174.881 13.278 176.358 15.529L176.399 16.0876C176.466 17.3584 176.299 18.6029 175.897 19.8175L175.735 20.3142C172.742 15.7127 168.623 12.7138 163.375 11.3193C157.993 9.88175 152.967 10.6708 148.297 13.6829C145.129 15.7277 143.198 18.6573 142.5 22.4715C142.593 17.7332 144.158 13.5948 147.191 10.0579C150.814 5.84261 155.331 3.19046 160.738 2.09961C161.758 2.57006 162.744 3.07987 163.697 3.6328L167.662 6.16124C168.991 7.11527 170.219 8.17238 171.347 9.33257" fill="#003135"/>
<path d="M156.573 2.09548C151.392 3.60243 147.352 6.70441 144.455 11.4014C141.463 16.2372 140.637 21.4046 141.98 26.9039C142.892 30.6337 145 33.4321 148.301 35.297C143.966 33.7488 140.631 30.9374 138.297 26.8626C135.506 22.0138 134.445 16.777 135.117 11.1521L137.453 8.72679C138.619 7.63594 139.814 6.59945 141.035 5.61731C142.309 4.60893 143.659 3.72426 145.082 2.96329C147.404 1.73374 149.825 0.745976 152.349 0L152.872 0.123705C154.079 0.455458 155.181 1.00088 156.173 1.76185L156.575 2.09361L156.573 2.09548Z" fill="#003135"/>
<path d="M130.583 18.7121L130.864 18.236C131.548 17.1583 132.401 16.2474 133.42 15.4995L133.822 15.209C133.621 20.7494 135.244 25.6676 138.694 29.9654C142.224 34.3869 146.74 36.7917 152.241 37.1778C155.972 37.4271 159.206 36.2256 161.943 33.5716C159.165 37.3427 155.535 39.7418 151.054 40.7633C145.713 41.9929 140.553 41.4119 135.573 39.0221L134.023 35.997L132.272 31.5211C131.749 29.9598 131.353 28.3648 131.085 26.7341C130.67 24.0951 130.501 21.4223 130.583 18.7139" fill="#003135"/>
</g>
<defs>
<clipPath id="clip0_1261_14173">
<rect width="177" height="48.1157" fill="white"/>
</clipPath>
</defs>
</svg>
