<svg width="177" height="49" viewBox="0 0 177 49" fill="none" xmlns="http://www.w3.org/2000/svg">
<g clip-path="url(#clip0_1230_15828)">
<path d="M18.0056 33.4303L10.7302 14.6178L4.71609 33.2133H0L10.4242 1.10938L18.0141 20.8039L25.6381 1.11223L36.0197 33.2133H31.3376L25.3207 14.6064L18.0056 33.4303Z" fill="white"/>
<path d="M41.5625 2.02722C41.5625 1.87592 41.6305 1.73033 41.7609 1.59616C41.8941 1.45914 42.033 1.39062 42.1804 1.39062H46.2928C46.4401 1.39062 46.579 1.45914 46.7122 1.59616C46.8454 1.73319 46.9106 1.87877 46.9106 2.02722V32.6125C46.9106 32.7638 46.8454 32.9065 46.7122 33.0435C46.579 33.1806 46.4401 33.2491 46.2928 33.2491H42.1804C42.033 33.2491 41.8941 33.1806 41.7609 33.0435C41.6277 32.9065 41.5625 32.7638 41.5625 32.6125V2.02722Z" fill="white"/>
<path d="M73.1676 28.379C73.2866 28.5331 73.3433 28.6844 73.3433 28.8328V32.6125C73.3433 32.7638 73.2866 32.9094 73.1676 33.0435C73.0485 33.1806 72.904 33.2491 72.7254 33.2491H55.485C55.3093 33.2491 55.1619 33.1806 55.0429 33.0435C54.9267 32.9065 54.8672 32.7638 54.8672 32.6125V2.02722C54.8672 1.87592 54.9267 1.73033 55.0429 1.59616C55.1591 1.45914 55.3065 1.39062 55.485 1.39062H59.5521C59.6995 1.39062 59.8384 1.45914 59.9716 1.59616C60.1019 1.73319 60.17 1.87877 60.17 2.02722V27.8794C60.17 28.0621 60.255 28.1506 60.4335 28.1506H72.7198C72.8983 28.1506 73.0428 28.2277 73.1619 28.379" fill="white"/>
<path d="M84.8056 6.76031V14.2254C84.8056 14.4081 84.8935 14.4966 85.0692 14.4966H95.2808C95.4281 14.4966 95.567 14.5651 95.7002 14.7021C95.8334 14.8391 95.8986 14.9847 95.8986 15.136V19.0041C95.8986 19.1868 95.8306 19.3381 95.7002 19.4609C95.567 19.5808 95.4281 19.6436 95.2808 19.6436H85.0692C84.8935 19.6436 84.8056 19.7349 84.8056 19.9148V27.8794C84.8056 28.0621 84.8935 28.1506 85.0692 28.1506H97.4461C97.6218 28.1506 97.7692 28.2277 97.8882 28.379C98.0073 28.5331 98.0639 28.6844 98.0639 28.8328V32.6125C98.0639 32.7638 98.0044 32.9094 97.8882 33.0435C97.772 33.1806 97.6246 33.2491 97.4461 33.2491H80.1179C79.9393 33.2491 79.7919 33.1806 79.6757 33.0435C79.5595 32.9065 79.5 32.7638 79.5 32.6125V2.02722C79.5 1.87592 79.5567 1.73033 79.6757 1.59331C79.7919 1.45628 79.9421 1.39062 80.1179 1.39062H97.4461C97.6218 1.39062 97.7692 1.45914 97.8882 1.59331C98.0073 1.73033 98.0639 1.87592 98.0639 2.02722V5.80399C98.0639 5.95529 98.0044 6.10659 97.8882 6.26074C97.772 6.41204 97.6246 6.48911 97.4461 6.48911H85.0692C84.8935 6.48911 84.8056 6.58046 84.8056 6.76316" fill="white"/>
<path d="M103.583 29.8783C103.404 29.6956 103.288 29.5357 103.229 29.4015C103.169 29.2645 103.214 29.059 103.362 28.7878V28.8334L104.955 25.9673C105.102 25.7247 105.295 25.5791 105.53 25.5363C105.765 25.4906 105.955 25.5277 106.102 25.6505L106.19 25.6961C106.366 25.8474 106.734 26.0986 107.296 26.4469C107.854 26.7952 108.506 27.152 109.24 27.5174C109.977 27.8828 110.745 28.1997 111.538 28.4737C112.332 28.7449 113.069 28.882 113.749 28.882C114.985 28.882 116.011 28.5109 116.821 27.7686C117.632 27.0264 118.037 26.1215 118.037 25.0595C118.037 23.8463 117.553 22.7843 116.58 21.8765C115.608 20.9659 114.149 20.1152 112.204 19.3273C111.173 18.9048 110.155 18.4024 109.155 17.8257C108.154 17.2519 107.267 16.5754 106.502 15.8017C105.734 15.0281 105.116 14.1346 104.646 13.1155C104.172 12.0992 103.937 10.9259 103.937 9.58991C103.937 8.58791 104.135 7.55736 104.532 6.49542C104.932 5.43347 105.536 4.48571 106.346 3.65214C107.157 2.81856 108.18 2.142 109.418 1.6253C110.657 1.1086 112.117 0.883081 113.794 0.943029C114.914 1.00298 115.977 1.16284 116.977 1.41976C117.978 1.67668 118.887 1.98214 119.695 2.33041C120.506 2.67868 121.192 3.01269 121.75 3.33241C122.308 3.64928 122.708 3.9005 122.943 4.0832C123.119 4.20595 123.229 4.38579 123.275 4.62844C123.32 4.87109 123.283 5.08234 123.164 5.26504C122.898 5.69039 122.612 6.13001 122.303 6.58391C121.994 7.03781 121.705 7.48029 121.441 7.90564C121.294 8.14829 121.101 8.32813 120.866 8.45089C120.63 8.57364 120.409 8.55936 120.202 8.40521C120.115 8.34526 119.834 8.17113 119.364 7.8828C118.893 7.59448 118.332 7.29188 117.683 6.97215C117.034 6.65528 116.334 6.36696 115.583 6.10718C114.832 5.85026 114.146 5.72179 113.528 5.72179C112.851 5.72179 112.253 5.82742 111.737 6.04152C111.221 6.25277 110.784 6.52682 110.43 6.86082C110.076 7.19482 109.812 7.56593 109.634 7.97415C109.458 8.38522 109.37 8.78774 109.37 9.18169C109.37 10.335 109.821 11.297 110.719 12.0706C111.618 12.8443 112.964 13.6864 114.764 14.5971C115.824 15.1423 116.901 15.7104 117.989 16.3042C119.08 16.8951 120.066 17.5802 120.951 18.351C121.835 19.1246 122.563 20.0353 123.139 21.0801C123.711 22.1277 124 23.3638 124 24.7883C124 25.9416 123.765 27.0721 123.292 28.1769C122.821 29.2845 122.15 30.2636 121.279 31.1115C120.409 31.9622 119.355 32.6302 118.119 33.1126C116.881 33.5979 115.481 33.7949 113.919 33.7036C112.533 33.6408 111.249 33.4466 110.07 33.1126C108.891 32.7786 107.851 32.4075 106.955 31.9965C106.057 31.5882 105.312 31.1857 104.722 30.7918C104.133 30.3978 103.736 30.0952 103.529 29.8811H103.574L103.583 29.8783Z" fill="white"/>
<path d="M6.28508 39.5486L3.47356 43.5765C3.43955 43.6108 3.39704 43.6336 3.35169 43.6336H3.32902C3.27517 43.6336 3.22982 43.6108 3.20715 43.5765L0.384291 39.5371V46.7652C0.384291 46.8452 0.330442 46.9137 0.251085 46.9137C0.171727 46.9137 0.109375 46.8452 0.109375 46.7652V39.1289C0.109375 39.0604 0.174561 38.9805 0.251085 38.9805C0.262421 38.9805 0.273758 38.9805 0.285095 38.9919C0.316271 38.9919 0.350281 39.0147 0.384291 39.0376L3.33752 43.2597L6.29074 39.0376C6.31342 39.0147 6.34743 38.9919 6.3786 38.9919C6.38994 38.9805 6.40128 38.9805 6.40978 38.9805C6.49764 38.9805 6.55432 39.0604 6.55432 39.1289V46.7652C6.55432 46.8452 6.49764 46.9137 6.40978 46.9137C6.34459 46.9137 6.27657 46.8452 6.27657 46.7652V39.5486H6.28508Z" stroke="white" stroke-miterlimit="10" stroke-linejoin="round"/>
<path d="M6.42228 47.0373C6.28907 47.0373 6.17287 46.9117 6.17287 46.769V39.9291L3.57391 43.6517C3.50589 43.7259 3.4322 43.7601 3.35568 43.7601C3.24231 43.7601 3.16012 43.7173 3.11478 43.6488L0.510154 39.9177V46.7719C0.510154 46.9232 0.399621 47.0402 0.260746 47.0402C0.119036 47.0402 0 46.9174 0 46.7719V39.1355C0 38.9956 0.124704 38.8672 0.260746 38.8672C0.272082 38.8672 0.303258 38.8672 0.334434 38.8843C0.38545 38.8957 0.425129 38.9243 0.459139 38.9471L0.487481 38.9757L3.34718 43.0607L6.20404 38.9757C6.24939 38.9243 6.29757 38.8957 6.34575 38.8872C6.37693 38.87 6.4081 38.87 6.42228 38.87C6.57816 38.87 6.68302 39.0099 6.68302 39.1384V46.7747C6.68302 46.926 6.56965 47.0431 6.42228 47.0431M6.4081 39.1726V46.7661C6.4081 46.7661 6.41944 46.789 6.42511 46.7918C6.42794 46.7918 6.44778 46.7918 6.44778 46.7661V39.1298C6.44778 39.1298 6.44778 39.1213 6.44211 39.1127H6.3911L3.35001 43.4661L0.311761 39.127C0.311761 39.127 0.291922 39.1156 0.286253 39.1127H0.246575C0.246575 39.1127 0.238072 39.1241 0.235238 39.1298V46.7661C0.235238 46.7661 0.249409 46.7918 0.260746 46.7918L0.274916 39.1612L3.31033 43.5061L3.35852 43.5118C3.35852 43.5118 3.38402 43.5061 3.39536 43.4918L6.4081 39.1726Z" stroke="white" stroke-miterlimit="10" stroke-linejoin="round"/>
<path d="M8.14026 46.9134H8.11758C8.02972 46.9134 7.98438 46.8449 7.98438 46.7649V39.1172C7.98438 39.0487 8.02689 38.9802 8.11758 38.9688H12.23C12.3065 38.9688 12.3632 39.0373 12.3632 39.1172C12.3632 39.1971 12.3093 39.2542 12.23 39.2542H8.26213V42.794H11.7567C11.8332 42.794 11.8899 42.8626 11.8899 42.9311C11.8899 43.0224 11.836 43.0795 11.7567 43.0795H8.26213V46.6308H12.23C12.3065 46.6308 12.3632 46.6879 12.3632 46.7678C12.3632 46.8477 12.3093 46.9162 12.23 46.9162H8.15159H8.14026V46.9134Z" stroke="white" stroke-miterlimit="10" stroke-linejoin="round"/>
<path d="M12.229 47.036H8.1166C7.97205 47.036 7.86719 46.9218 7.86719 46.7676V39.1199C7.86719 38.98 7.96355 38.8687 8.10243 38.8516H8.13927H12.229C12.3679 38.8516 12.4784 38.9715 12.4784 39.1199C12.4784 39.2655 12.3707 39.3768 12.229 39.3768H8.37734V42.674H11.7529C11.8917 42.674 12.0023 42.791 12.0023 42.9309C12.0023 43.0851 11.8974 43.1993 11.7529 43.1993H8.37734V46.5079H12.229C12.3707 46.5079 12.4784 46.6192 12.4784 46.7648C12.4784 46.9161 12.3679 47.0331 12.229 47.0331M8.13927 39.0914C8.1166 39.0914 8.10243 39.0971 8.10243 39.117V46.7648L8.15061 46.7905H12.229V46.7505H8.14494V42.9566H11.7557V42.9167H8.14494V39.1342H12.229C12.2432 39.1056 12.2375 39.0942 12.229 39.0942H8.13927V39.0914Z" stroke="white" stroke-miterlimit="10" stroke-linejoin="round"/>
<path d="M15.2618 46.6308C17.2457 46.6079 18.8329 44.975 18.8442 42.9311C18.8329 40.9099 17.2457 39.2542 15.2618 39.2542H13.9184V46.6308H15.2618ZM13.6406 39.1172C13.6406 39.0373 13.6945 38.9688 13.7823 38.9688H15.2589C17.3959 38.9688 19.1163 40.7501 19.1163 42.9282C19.1163 45.1292 17.3959 46.9105 15.2589 46.9105H13.7937H13.7823C13.6945 46.9105 13.6406 46.842 13.6406 46.7649V39.1172Z" stroke="white" stroke-miterlimit="10" stroke-linejoin="round"/>
<path d="M15.2608 47.036H13.7955C13.6368 47.036 13.5234 46.9189 13.5234 46.7676V39.1199C13.5234 38.9658 13.6368 38.8516 13.7842 38.8516H15.2608C17.4516 38.8516 19.2372 40.6843 19.2372 42.9338C19.2372 45.1976 17.4545 47.0388 15.2608 47.0388M14.0336 46.5079H15.2608C17.1937 46.485 18.7157 44.9149 18.727 42.9281C18.7157 40.9697 17.1625 39.374 15.2636 39.374H14.0364V46.5079H14.0336ZM15.2608 46.7505H13.7984V39.1313H15.2608C17.2901 39.1313 18.9481 40.8356 18.9594 42.9281C18.9481 45.0491 17.3241 46.7248 15.2608 46.7505ZM13.7955 39.0914C13.7757 39.0914 13.7587 39.0914 13.7587 39.117V46.7648C13.7587 46.7905 13.7785 46.7905 13.7842 46.7905H15.2608C17.3241 46.7905 19.0019 45.0577 19.0019 42.9281C19.0019 40.8099 17.3241 39.0885 15.2608 39.0885H13.7955V39.0914Z" stroke="white" stroke-miterlimit="10" stroke-linejoin="round"/>
<path d="M20.2188 39.1172C20.2188 39.0258 20.2726 38.9688 20.3633 38.9688C20.4285 38.9688 20.4965 39.0258 20.4965 39.1172V46.7649C20.4965 46.8563 20.4313 46.9105 20.3633 46.9105C20.2754 46.9105 20.2188 46.8534 20.2188 46.7649V39.1172Z" stroke="white" stroke-miterlimit="10" stroke-linejoin="round"/>
<path d="M20.3623 39.0914C20.3396 39.0914 20.3368 39.0914 20.3368 39.117V46.7648C20.3368 46.7876 20.3368 46.7905 20.3623 46.7905L20.3765 39.117C20.3765 39.0942 20.3651 39.0914 20.3623 39.0914ZM20.3623 47.036C20.2093 47.036 20.1016 46.9246 20.1016 46.7676V39.1199C20.1016 38.96 20.2093 38.8516 20.3623 38.8516C20.5012 38.8516 20.6117 38.9715 20.6117 39.1199V46.7676C20.6117 46.9189 20.5012 47.036 20.3623 47.036Z" stroke="white" stroke-miterlimit="10" stroke-linejoin="round"/>
<path d="M23.2033 44.4605H26.8424L25.0228 39.4905L23.2033 44.4605ZM26.9529 44.7574H23.0956L22.3559 46.7871C22.3445 46.8442 22.2907 46.8899 22.234 46.8899C22.2227 46.8899 22.2 46.8784 22.1801 46.8784C22.115 46.8442 22.0809 46.7642 22.115 46.6872L24.8925 39.0623C24.9151 38.9938 24.969 38.9595 25.0342 38.9709C25.0909 38.9709 25.1447 39.0052 25.1759 39.0623L27.9534 46.6872C27.9874 46.7671 27.9421 46.8442 27.8769 46.8784C27.8542 46.8784 27.8429 46.8899 27.8344 46.8899C27.7777 46.8899 27.7238 46.8442 27.6898 46.7871L26.9501 44.7574H26.9529Z" stroke="white" stroke-miterlimit="10" stroke-linejoin="round"/>
<path d="M22.2173 46.7623C22.2173 46.7623 22.2372 46.768 22.2428 46.7708L23.0081 44.6384H27.0298L27.7978 46.748C27.8035 46.7537 27.8148 46.7623 27.8233 46.768C27.8262 46.768 27.829 46.768 27.8318 46.768C27.8404 46.7594 27.846 46.7508 27.8432 46.7394L25.0628 39.106C25.0628 39.106 25.043 39.0945 25.0317 39.0945L25.0005 39.106L22.223 46.7337C22.2173 46.748 22.2173 46.7594 22.223 46.7651M23.368 44.3415H26.6642L25.0147 39.8368L23.3652 44.3415H23.368ZM27.0071 44.5841H23.0279L25.0175 39.1488L27.0071 44.5841ZM27.829 47.0135C27.7355 47.0135 27.642 46.9507 27.5853 46.8508L26.8654 44.8782H23.1724L22.4611 46.8308C22.4441 46.925 22.342 47.0135 22.2287 47.0135L22.1493 47.0049L22.121 46.9906C21.9962 46.925 21.9424 46.7765 21.9991 46.6424L24.7738 39.0203C24.8134 38.9004 24.924 38.8291 25.0458 38.8519C25.1224 38.8462 25.2187 38.9061 25.2726 39.0003L28.0586 46.6452C28.1124 46.7708 28.0557 46.9221 27.9254 46.9878L27.829 47.0135Z" stroke="white" stroke-miterlimit="10" stroke-linejoin="round"/>
<path d="M29.8509 39.2542H27.3058C27.2292 39.2542 27.1641 39.1971 27.1641 39.1172C27.1641 39.0373 27.2292 38.9688 27.3058 38.9688H32.6737C32.7616 38.9688 32.8183 39.0373 32.8183 39.1172C32.8183 39.1971 32.7616 39.2542 32.6737 39.2542H30.14V46.7678C30.14 46.8477 30.0634 46.9162 29.9983 46.9162C29.9104 46.9162 29.8537 46.8477 29.8537 46.7678V39.2542H29.8509Z" stroke="white" stroke-miterlimit="10" stroke-linejoin="round"/>
<path d="M27.3076 39.0914C27.3076 39.0914 27.2821 39.1056 27.2821 39.117L29.9718 39.1313V46.7648C29.9718 46.7905 29.9916 46.7905 29.9973 46.7905C30.0058 46.7905 30.0228 46.7734 30.0228 46.7648V39.1313H32.6756C32.7011 39.0914 32.6841 39.0914 32.6756 39.0914H27.3076ZM29.9973 47.036C29.8499 47.036 29.7365 46.9189 29.7365 46.7676V39.3768H27.3076C27.1631 39.3768 27.0469 39.2626 27.0469 39.1199C27.0469 38.9743 27.1659 38.8516 27.3076 38.8516H32.6756C32.823 38.8516 32.9363 38.9686 32.9363 39.1199C32.9363 39.2683 32.8258 39.3768 32.6756 39.3768H30.258V46.7676C30.258 46.9075 30.1333 47.036 29.9973 47.036Z" stroke="white" stroke-miterlimit="10" stroke-linejoin="round"/>
<path d="M34.0938 39.1172C34.0938 39.0258 34.1504 38.9688 34.2383 38.9688C34.3035 38.9688 34.3715 39.0258 34.3715 39.1172V46.7649C34.3715 46.8563 34.3063 46.9105 34.2383 46.9105C34.1504 46.9105 34.0938 46.8534 34.0938 46.7649V39.1172Z" stroke="white" stroke-miterlimit="10" stroke-linejoin="round"/>
<path d="M34.2373 39.0914C34.2146 39.0914 34.2118 39.0914 34.2118 39.117V46.7648C34.2118 46.7876 34.2118 46.7905 34.2373 46.7905L34.2515 39.117C34.2515 39.0942 34.2401 39.0914 34.2373 39.0914ZM34.2373 47.036C34.0843 47.036 33.9766 46.9246 33.9766 46.7676V39.1199C33.9766 38.96 34.0843 38.8516 34.2373 38.8516C34.3762 38.8516 34.4867 38.9715 34.4867 39.1199V46.7676C34.4867 46.9189 34.3762 47.036 34.2373 47.036Z" stroke="white" stroke-miterlimit="10" stroke-linejoin="round"/>
<path d="M39.9144 46.7555C41.7991 46.7326 43.3636 45.0541 43.3749 42.953C43.3636 40.8434 41.7991 39.1506 39.9144 39.1506C38.0183 39.1506 36.4538 40.8434 36.4538 42.953C36.4538 45.0512 38.0183 46.7326 39.9144 46.7555ZM39.9144 38.8594C41.9975 38.8594 43.6612 40.6864 43.6839 42.9559C43.6612 45.2368 41.9975 47.0638 39.9144 47.0638C37.8313 47.0638 36.1676 45.2368 36.1562 42.9559C36.1676 40.6864 37.8313 38.8594 39.9144 38.8594Z" stroke="white" stroke-miterlimit="10" stroke-linejoin="round"/>
<path d="M39.9162 39.2711C38.074 39.2711 36.5719 40.9211 36.5719 42.9508C36.5719 44.9576 38.0712 46.6076 39.9162 46.6305C41.75 46.6076 43.2492 44.9576 43.2606 42.9508C43.2492 40.9239 41.75 39.2711 39.9162 39.2711ZM39.9162 46.876C37.9436 46.8531 36.3395 45.0918 36.3395 42.9536C36.3395 40.7898 37.9436 39.0313 39.9191 39.0313C41.8803 39.0313 43.4873 40.7898 43.4986 42.9536C43.4873 45.0946 41.8832 46.8531 39.9219 46.8788L39.9162 46.876ZM39.9162 38.977C37.9181 38.977 36.2856 40.7612 36.2743 42.9536C36.2856 45.1889 37.8841 46.9388 39.9162 46.9388C41.9427 46.9388 43.5468 45.186 43.5695 42.9508C43.5468 40.7241 41.9427 38.977 39.9162 38.977ZM39.9162 47.1814C37.7537 47.1814 36.0504 45.323 36.0391 42.9536C36.0504 40.627 37.7906 38.7344 39.9162 38.7344C42.0731 38.7344 43.7792 40.5871 43.8047 42.9508C43.7821 45.323 42.0731 47.1814 39.9162 47.1814Z" stroke="white" stroke-miterlimit="10" stroke-linejoin="round"/>
<path d="M44.9731 39.5617V46.767C44.9731 46.8469 44.9192 46.9154 44.8399 46.9154C44.7747 46.9154 44.6953 46.8469 44.6953 46.767V39.1763V39.1421C44.6953 39.0964 44.718 39.0507 44.752 39.0165C44.8285 38.9708 44.905 38.9822 44.9504 39.0393L50.0434 46.3245V39.1763C50.0434 39.0964 50.12 39.0279 50.1851 39.0279C50.2617 39.0279 50.3183 39.0964 50.3183 39.1763V46.767C50.3183 46.8469 50.2645 46.9154 50.1851 46.9154C50.1285 46.9154 50.0746 46.8812 50.0519 46.8241C50.0519 46.8241 50.0482 46.8203 50.0406 46.8126L44.9702 39.5617H44.9731Z" stroke="white" stroke-miterlimit="10" stroke-linejoin="round"/>
<path d="M44.8325 39.1102C44.8325 39.1102 44.8212 39.133 44.8212 39.1387V46.7665C44.8212 46.7665 44.8382 46.7893 44.8495 46.7922L44.8637 39.1844L50.1211 46.7008H50.1409L50.1721 46.775L50.209 46.7636V39.1701C50.209 39.1701 50.2033 39.1444 50.1948 39.1444C50.1863 39.1444 50.1693 39.1616 50.1693 39.1701V46.6951L44.8637 39.1045C44.858 39.0988 44.8438 39.1045 44.8353 39.1073M50.192 47.0348C50.1154 47.0348 50.0446 47.0006 49.9964 46.9435H49.9426L49.9341 46.855L45.0961 39.9352V46.7665C45.0961 46.9178 44.9856 47.0348 44.8467 47.0348C44.7106 47.0348 44.5859 46.9064 44.5859 46.7665V39.1387C44.5859 39.0616 44.6171 38.9874 44.6738 38.9275L44.6993 38.9075C44.8268 38.8333 44.9657 38.8533 45.0479 38.9617L49.9312 45.9472V39.173C49.9312 39.0331 50.0559 38.9046 50.192 38.9046C50.3308 38.9046 50.4414 39.0245 50.4414 39.173V46.7665C50.4414 46.9178 50.3308 47.0348 50.192 47.0348Z" stroke="white" stroke-miterlimit="10" stroke-linejoin="round"/>
<path d="M55.4574 42.1689C55.1059 41.8292 54.8849 41.3524 54.8849 40.8072C54.8849 39.7852 55.6898 38.9688 56.6591 38.9688C57.6284 38.9688 58.4559 39.7852 58.4559 40.8072C58.4559 40.8871 58.3993 40.9556 58.3142 40.9556C58.249 40.9556 58.1697 40.8871 58.1697 40.8072C58.1697 39.9451 57.498 39.2542 56.6591 39.2542C55.8428 39.2542 55.1711 39.9451 55.1711 40.8072C55.1711 41.3296 55.4035 41.7949 55.7975 42.0775C55.8088 42.0889 55.8201 42.1118 55.8315 42.1232C55.8315 42.1346 55.8428 42.1346 55.8428 42.1346C55.8655 42.2031 55.8428 42.2716 55.7861 42.3059C55.7635 42.3287 55.7436 42.3401 55.7209 42.3401C55.0039 42.7255 54.5192 43.4963 54.5192 44.3727C54.5192 45.6202 55.4999 46.6308 56.7129 46.6308C57.9373 46.6308 58.9179 45.6202 58.9179 44.3727C58.9179 44.1557 58.8839 43.9416 58.8301 43.7361H58.7649C58.6203 43.7133 58.5126 43.7133 58.3794 43.7133C57.6312 43.7133 57.2231 43.9074 57.002 44.1215C56.7923 44.3384 56.7384 44.6096 56.7384 44.8237C56.7384 44.9151 56.7498 44.9836 56.7498 45.0407C56.7611 45.0978 56.7611 45.1092 56.7611 45.1092C56.7951 45.2006 56.7498 45.2662 56.6846 45.3005H56.6392C56.5854 45.3005 56.5287 45.2662 56.4975 45.1977C56.4975 45.1977 56.455 45.0378 56.455 44.8237C56.455 44.564 56.5088 44.21 56.8064 43.9159C57.104 43.6305 57.5887 43.4278 58.3823 43.4278C58.5155 43.4278 58.6345 43.4278 58.779 43.4392H58.8442C59.0426 43.4392 59.2183 43.3821 59.3629 43.2793C59.5046 43.1652 59.5839 43.0082 59.6066 42.7341C59.6066 42.6313 59.5839 42.5286 59.5641 42.4058C59.5301 42.3373 59.5868 42.2459 59.6633 42.2345C59.7398 42.2231 59.8163 42.2574 59.8277 42.3487C59.8617 42.4743 59.873 42.6085 59.873 42.7341C59.8844 43.0852 59.7398 43.3593 59.5301 43.5191C59.4082 43.6219 59.2665 43.6904 59.122 43.7104C59.1758 43.9245 59.1985 44.1415 59.1985 44.3698C59.1985 45.7772 58.096 46.9105 56.7186 46.9105C55.3525 46.9105 54.25 45.7743 54.25 44.3698C54.25 43.4392 54.7346 42.6113 55.463 42.1689" fill="white"/>
<path d="M56.7116 47.1565C55.2208 47.1565 54.0078 45.9061 54.0078 44.3732C54.0078 43.4853 54.4188 42.6489 55.0961 42.1265C54.8042 41.7554 54.6483 41.2958 54.6483 40.8076C54.6483 39.6601 55.5496 38.7266 56.6578 38.7266C57.7773 38.7266 58.6899 39.6601 58.6899 40.8076C58.6899 41.0275 58.5227 41.1987 58.3101 41.1987C58.1089 41.1987 57.9303 41.016 57.9303 40.8076C57.9303 40.0854 57.3578 39.4945 56.6549 39.4945C55.9662 39.4945 55.4022 40.0825 55.4022 40.8076C55.4022 41.2501 55.595 41.6412 55.9294 41.881L55.9492 41.8953H56.0116L56.0796 42.0409L56.0711 42.0894C56.1108 42.2464 56.0569 42.4063 55.9322 42.5005C55.8869 42.5433 55.8387 42.5633 55.7962 42.5775C55.15 42.9401 54.7532 43.6252 54.7532 44.376C54.7532 45.4865 55.6318 46.3914 56.7116 46.3914C57.7971 46.3914 58.6814 45.4865 58.6814 44.376C58.6814 44.2447 58.6672 44.1077 58.6389 43.9678C58.5397 43.9592 58.4632 43.9564 58.3753 43.9592C57.6582 43.9592 57.3181 44.1448 57.1594 44.3018C57.0007 44.4645 56.9695 44.6786 56.9695 44.8299C56.9695 44.8727 56.9724 44.9098 56.9752 44.9412C56.9752 44.9784 56.9809 45.0098 56.9809 45.0383C57.0461 45.2296 56.9639 45.4265 56.7853 45.5207L56.6805 45.5464C56.4906 45.5464 56.3545 45.4579 56.2837 45.3124C56.261 45.2496 56.2128 45.0697 56.2128 44.8271C56.2128 44.3874 56.3574 44.0249 56.6379 43.7451C57.0971 43.3084 57.8141 43.1199 58.7919 43.2027H58.8401C58.9846 43.2027 59.1179 43.1628 59.2227 43.0857C59.2907 43.0314 59.3474 42.943 59.3644 42.7203C59.3644 42.6689 59.3474 42.5947 59.3333 42.5119C59.2964 42.4205 59.2992 42.3035 59.3503 42.2007C59.4041 42.0951 59.5061 42.0209 59.6195 42.0038C59.7272 41.9866 59.8321 42.0123 59.9143 42.0751C59.9908 42.1351 60.039 42.2236 60.0503 42.3235C60.0786 42.4234 60.0957 42.5747 60.0957 42.7403C60.107 43.1399 59.9483 43.4968 59.6592 43.7194C59.577 43.7879 59.4835 43.845 59.3871 43.8879C59.4126 44.042 59.4239 44.2047 59.4239 44.376C59.4239 45.9118 58.2052 47.1593 56.7088 47.1593" fill="white"/>
<path d="M63.8886 44.4605H67.5277L65.7082 39.4905L63.8886 44.4605ZM67.6354 44.7574H63.7781L63.0384 46.7871C63.0271 46.8442 62.9732 46.8899 62.9165 46.8899C62.9052 46.8899 62.8825 46.8784 62.8598 46.8784C62.7946 46.8442 62.7606 46.7642 62.7946 46.6872L65.5722 39.0623C65.5948 38.9938 65.6487 38.9595 65.7139 38.9709C65.7677 38.9709 65.8244 39.0052 65.8556 39.0623L68.6331 46.6872C68.6671 46.7671 68.6217 46.8442 68.5566 46.8784C68.5339 46.8784 68.5225 46.8899 68.5112 46.8899C68.4574 46.8899 68.4007 46.8442 68.3695 46.7871L67.6298 44.7574H67.6354Z" stroke="white" stroke-miterlimit="10" stroke-linejoin="round"/>
<path d="M62.9093 46.7623C62.9093 46.7623 62.9291 46.768 62.9348 46.7708L63.7 44.6384H67.7217L68.4898 46.748C68.4955 46.7537 68.5068 46.7623 68.5153 46.768C68.5153 46.768 68.521 46.768 68.5238 46.768C68.5323 46.7594 68.5408 46.7508 68.5351 46.7394L65.7548 39.106C65.7548 39.106 65.7321 39.0945 65.7208 39.0945L65.6896 39.106L62.9121 46.7337C62.9064 46.748 62.9064 46.7594 62.9121 46.7651M64.0599 44.3415H67.3561L65.7066 39.8368L64.0571 44.3415H64.0599ZM67.6962 44.5841H63.7198L65.7094 39.1488L67.699 44.5841H67.6962ZM68.5181 47.0135C68.4246 47.0135 68.3311 46.9507 68.2744 46.8508L67.5545 44.8782H63.8587L63.1473 46.8308C63.1303 46.925 63.0283 47.0135 62.9149 47.0135L62.8356 47.0049L62.8072 46.9906C62.6825 46.925 62.6315 46.7765 62.6854 46.6424L65.4629 39.0203C65.4997 38.9004 65.6131 38.8291 65.7349 38.8519C65.8256 38.8462 65.9078 38.9061 65.9589 39.0003L68.7449 46.6452C68.7987 46.7708 68.742 46.9221 68.6117 46.9878L68.5153 47.0135H68.5181Z" stroke="white" stroke-miterlimit="10" stroke-linejoin="round"/>
<path d="M73.5179 45.2016C73.5179 44.6449 73.2742 44.2596 72.9681 43.9769C72.6591 43.6943 72.285 43.5459 72.0413 43.4545C71.8656 43.3974 71.755 43.386 71.755 43.386H69.6606V46.7688C69.6606 46.8488 69.6039 46.9173 69.5274 46.9173C69.4508 46.9173 69.3828 46.8488 69.3828 46.7688V39.1211C69.3828 39.0412 69.448 38.9727 69.5274 38.9727H71.7862C72.9652 38.9727 73.9345 39.9604 73.9345 41.185C73.9345 42.1956 73.2827 43.0349 72.3927 43.2947C72.5259 43.3518 72.6563 43.4203 72.7895 43.5002C73.2742 43.7857 73.7928 44.3281 73.7928 45.2016C73.7928 45.8468 73.8807 46.2008 73.9572 46.3578C74.0564 46.5176 74.1102 46.4948 74.1216 46.4948H74.1442C74.2094 46.4834 74.2973 46.5291 74.3086 46.5976C74.3313 46.6661 74.2973 46.7574 74.2208 46.7688C74.2094 46.7917 74.1754 46.7917 74.1216 46.7917C74.011 46.7917 73.8353 46.7117 73.7248 46.4862C73.5916 46.2607 73.5151 45.8839 73.5151 45.2045M71.789 43.0891H71.8117C72.8264 43.0777 73.6511 42.2499 73.6511 41.1822C73.6511 40.1145 72.815 39.2524 71.789 39.2524H69.6606V43.0863H71.789V43.0891Z" stroke="white" stroke-miterlimit="10" stroke-linejoin="round"/>
<path d="M69.5342 47.036C69.3925 47.036 69.2734 46.9132 69.2734 46.7676V39.1199C69.2734 38.9743 69.3925 38.8516 69.5342 38.8516H71.793C73.0429 38.8516 74.0604 39.8992 74.0604 41.1867C74.0604 42.1316 73.5276 42.9538 72.7085 43.3135C72.7567 43.3392 72.8077 43.3677 72.8559 43.3962C73.2526 43.6275 73.9158 44.1727 73.9158 45.2033C73.9158 45.9141 74.0235 46.211 74.0689 46.308C74.1057 46.368 74.1312 46.3794 74.1312 46.3794C74.1908 46.368 74.2559 46.3794 74.3126 46.4137C74.3778 46.4508 74.4203 46.5136 74.4317 46.5821C74.4515 46.6363 74.443 46.7163 74.4033 46.7819C74.375 46.8276 74.3381 46.8618 74.29 46.879C74.2446 46.9161 74.1823 46.9161 74.1284 46.9161C73.981 46.9161 73.76 46.819 73.6268 46.5421C73.4737 46.2823 73.4057 45.8656 73.4057 45.2061C73.4057 44.7579 73.2385 44.3868 72.8927 44.07C72.5866 43.7902 72.2068 43.6475 72.0056 43.5704C71.8497 43.5219 71.7477 43.5104 71.7477 43.5104H69.7836V46.7734C69.7836 46.9247 69.6731 47.0417 69.5342 47.0417M69.7836 42.968H71.8157C72.7822 42.9566 73.5389 42.1744 73.5389 41.1838C73.5389 40.1876 72.7567 39.3768 71.793 39.3768H69.7836V42.968ZM71.8157 43.2107H69.5484V39.1313H71.793C72.8842 39.1313 73.7741 40.0505 73.7741 41.181C73.7741 42.3058 72.9154 43.1964 71.8185 43.2078L71.8157 43.2107ZM69.554 39.0914C69.52 39.0914 69.5058 39.1056 69.5058 39.117V46.7648C69.5058 46.7648 69.52 46.7905 69.5313 46.7905L69.5455 43.2621H71.7562C71.7732 43.2621 71.8922 43.2763 72.0765 43.3363C72.2833 43.4134 72.7056 43.5704 73.0457 43.8844C73.4425 44.2498 73.6353 44.6809 73.6353 45.2004C73.6353 45.8056 73.6976 46.1938 73.828 46.4194C73.9328 46.6335 74.0802 46.6677 74.1397 46.6649L74.1454 46.6535L74.2049 46.6449L74.1936 46.6135C74.1936 46.6135 74.1766 46.6135 74.1652 46.6135H74.1227C74.032 46.6249 73.947 46.5678 73.8592 46.4222C73.7855 46.2738 73.6749 45.9341 73.6749 45.2004C73.6749 44.2898 73.0826 43.8102 72.7311 43.6018C72.6064 43.5247 72.4789 43.459 72.3457 43.4048L72.0368 43.2706L72.3599 43.1764C73.2328 42.9224 73.8166 42.1202 73.8166 41.1838C73.8166 40.0305 72.9069 39.0914 71.7845 39.0914H69.5455H69.554Z" stroke="white" stroke-miterlimit="10" stroke-linejoin="round"/>
<path d="M77.9666 46.6308C79.0039 46.6308 79.8173 45.7686 79.8173 44.701C79.8173 43.6333 79.0011 42.794 77.9666 42.794H75.8296V46.6308H77.9666ZM77.4621 42.4886C78.3322 42.4886 79.0266 41.7749 79.0379 40.8785C79.0266 39.9936 78.3322 39.2771 77.4621 39.2571H75.8296V42.4914H77.4621V42.4886ZM75.5547 39.1172C75.5547 39.0373 75.6114 38.9688 75.6992 38.9688H77.4621C78.4881 38.9688 79.3242 39.8309 79.3242 40.8757C79.3242 41.6008 78.9387 42.2145 78.3662 42.5428C79.3582 42.7341 80.1092 43.6305 80.1092 44.6981C80.1092 45.9228 79.1626 46.9105 77.9723 46.9105H75.7247H75.7021C75.6142 46.9105 75.5575 46.842 75.5575 46.7649V39.1172H75.5547Z" stroke="white" stroke-miterlimit="10" stroke-linejoin="round"/>
<path d="M77.4533 42.6083H75.7046V39.1313H77.4533C78.3942 39.157 79.1368 39.9221 79.1481 40.8727C79.1368 41.8461 78.3942 42.6055 77.4533 42.6055M77.9606 46.7505H75.7046V42.6712H77.9606C79.0461 42.6712 79.9304 43.5818 79.9304 44.698C79.9304 45.8284 79.0461 46.7477 77.9606 46.7477M77.9606 47.036H75.7131C75.5459 47.036 75.4297 46.9189 75.4297 46.7676V39.1199C75.4297 38.9658 75.5431 38.8516 75.6904 38.8516H77.4533C78.5445 38.8516 79.4344 39.7622 79.4344 40.8812C79.4344 41.5293 79.1453 42.1173 78.6493 42.4999C79.5733 42.8025 80.2195 43.6903 80.2195 44.7037C80.2195 45.9912 79.2077 47.0388 77.9635 47.0388M75.9398 42.3657H77.4533C78.261 42.3657 78.9016 41.712 78.9129 40.8755C78.9016 40.0562 78.261 39.3968 77.4505 39.3768H75.9398V42.3686V42.3657ZM75.9398 46.5079H77.9606C78.9327 46.5079 79.6951 45.7143 79.6951 44.7008C79.6951 43.716 78.9186 42.9167 77.9606 42.9167H75.9398V46.5107V46.5079ZM75.7131 39.0914C75.6848 39.0914 75.6649 39.0914 75.6649 39.117V46.7648C75.6649 46.7905 75.6848 46.7905 75.6904 46.7905H77.9606C79.0745 46.7905 79.9814 45.8513 79.9814 44.698C79.9814 43.7045 79.2899 42.8453 78.3376 42.6597L78.0173 42.5969L78.3007 42.4342C78.8647 42.1116 79.1992 41.5264 79.1992 40.8727C79.1992 39.8878 78.4169 39.0885 77.4533 39.0885H75.7103L75.7131 39.0914Z" stroke="white" stroke-miterlimit="10" stroke-linejoin="round"/>
<path d="M81.1875 39.1172C81.1875 39.0258 81.2414 38.9688 81.332 38.9688C81.3972 38.9688 81.4653 39.0258 81.4653 39.1172V46.7649C81.4653 46.8563 81.4001 46.9105 81.332 46.9105C81.2442 46.9105 81.1875 46.8534 81.1875 46.7649V39.1172Z" stroke="white" stroke-miterlimit="10" stroke-linejoin="round"/>
<path d="M81.3311 39.0914C81.3084 39.0914 81.3055 39.0914 81.3055 39.117V46.7648C81.3055 46.7876 81.3055 46.7905 81.3311 46.7905L81.3452 39.117C81.3452 39.0942 81.3339 39.0914 81.3311 39.0914ZM81.3311 47.036C81.178 47.036 81.0703 46.9246 81.0703 46.7676V39.1199C81.0703 38.96 81.178 38.8516 81.3311 38.8516C81.4699 38.8516 81.5805 38.9715 81.5805 39.1199V46.7676C81.5805 46.9189 81.4699 47.036 81.3311 47.036Z" stroke="white" stroke-miterlimit="10" stroke-linejoin="round"/>
<path d="M85.679 39.2542H83.1339C83.0574 39.2542 82.9922 39.1971 82.9922 39.1172C82.9922 39.0373 83.0574 38.9688 83.1339 38.9688H88.5019C88.5897 38.9688 88.6436 39.0373 88.6436 39.1172C88.6436 39.1971 88.5897 39.2542 88.5019 39.2542H85.9681V46.7678C85.9681 46.8477 85.8916 46.9162 85.8264 46.9162C85.7385 46.9162 85.6818 46.8477 85.6818 46.7678V39.2542H85.679Z" stroke="white" stroke-miterlimit="10" stroke-linejoin="round"/>
<path d="M83.1357 39.0914C83.1357 39.0914 83.1102 39.1056 83.1102 39.117L85.7999 39.1313V46.7648C85.7999 46.7905 85.8197 46.7905 85.8254 46.7905C85.8339 46.7905 85.8509 46.7734 85.8509 46.7648V39.1313H88.5037C88.5292 39.0914 88.5122 39.0914 88.5037 39.0914H83.1357ZM85.8254 47.036C85.678 47.036 85.5646 46.9189 85.5646 46.7676V39.3768H83.1357C82.9912 39.3768 82.875 39.2626 82.875 39.1199C82.875 38.9743 82.994 38.8516 83.1357 38.8516H88.5037C88.6511 38.8516 88.7644 38.9686 88.7644 39.1199C88.7644 39.2683 88.6539 39.3768 88.5037 39.3768H86.0861V46.7676C86.0861 46.9075 85.9614 47.036 85.8254 47.036Z" stroke="white" stroke-miterlimit="10" stroke-linejoin="round"/>
<path d="M93.8304 45.2016C93.8304 44.6449 93.5867 44.2596 93.2777 43.9769C92.9688 43.6943 92.5947 43.5459 92.3509 43.4545C92.1752 43.3974 92.0647 43.386 92.0647 43.386H89.9702V46.7688C89.9702 46.8488 89.9135 46.9173 89.837 46.9173C89.7605 46.9173 89.6953 46.8488 89.6953 46.7688V39.1211C89.6953 39.0412 89.7605 38.9727 89.837 38.9727H92.0959C93.2749 38.9727 94.2442 39.9604 94.2442 41.185C94.2442 42.1956 93.5923 43.0349 92.7024 43.2947C92.8356 43.3518 92.966 43.4203 93.0992 43.5002C93.5838 43.7857 94.1025 44.3281 94.1025 45.2016C94.1025 45.8468 94.1903 46.2008 94.2669 46.3578C94.3661 46.5176 94.4199 46.4948 94.4312 46.4948H94.4539C94.5191 46.4834 94.607 46.5291 94.6183 46.5976C94.641 46.6661 94.607 46.7574 94.5304 46.7688C94.5191 46.7917 94.4851 46.7917 94.4312 46.7917C94.3207 46.7917 94.145 46.7117 94.0345 46.4862C93.9013 46.2607 93.8247 45.8839 93.8247 45.2045M92.0987 43.0891H92.1214C93.136 43.0777 93.9608 42.2499 93.9608 41.1822C93.9608 40.1145 93.1247 39.2524 92.0987 39.2524H89.9702V43.0863H92.0987V43.0891Z" stroke="white" stroke-miterlimit="10" stroke-linejoin="round"/>
<path d="M89.8389 47.036C89.6972 47.036 89.5781 46.9132 89.5781 46.7676V39.1199C89.5781 38.9743 89.6972 38.8516 89.8389 38.8516H92.0977C93.3476 38.8516 94.3651 39.8992 94.3651 41.1867C94.3651 42.1316 93.8322 42.9538 93.0132 43.3135C93.0642 43.3392 93.1124 43.3677 93.1605 43.3962C93.5573 43.6275 94.2205 44.1727 94.2205 45.2033C94.2205 45.9141 94.3282 46.211 94.3736 46.308C94.4104 46.368 94.4359 46.3794 94.4359 46.3794C94.4954 46.368 94.5606 46.3794 94.6173 46.4137C94.6825 46.4508 94.725 46.5136 94.7363 46.5821C94.7562 46.6363 94.7449 46.7163 94.708 46.7819C94.6797 46.8276 94.64 46.8618 94.5946 46.879C94.5493 46.9161 94.4869 46.9161 94.4331 46.9161C94.2857 46.9161 94.0646 46.819 93.9314 46.5421C93.7784 46.2823 93.7104 45.8656 93.7104 45.2061C93.7104 44.7579 93.5432 44.3868 93.1974 44.07C92.8913 43.7902 92.5115 43.6475 92.3103 43.5704C92.1544 43.5219 92.0524 43.5104 92.0524 43.5104H90.0883V46.7734C90.0883 46.9247 89.9777 47.0417 89.8389 47.0417M90.0883 42.968H92.1204C93.0869 42.9566 93.8436 42.1744 93.8436 41.1838C93.8436 40.1876 93.0613 39.3768 92.0977 39.3768H90.0883V42.968ZM92.1204 43.2107H89.853V39.1313H92.0977C93.1889 39.1313 94.0788 40.0505 94.0788 41.181C94.0788 42.3058 93.2201 43.1964 92.1232 43.2078L92.1204 43.2107ZM89.8615 39.0914C89.8275 39.0914 89.8134 39.1056 89.8134 39.117V46.7648C89.8134 46.7648 89.8275 46.7905 89.8389 46.7905L89.853 43.2621H92.0637C92.0807 43.2621 92.1997 43.2763 92.384 43.3363C92.5909 43.4134 93.0132 43.5704 93.3533 43.8844C93.7501 44.2498 93.9428 44.6809 93.9428 45.2004C93.9428 45.8056 94.0051 46.1938 94.1355 46.4194C94.2404 46.6335 94.3877 46.6677 94.4473 46.6649L94.4529 46.6535L94.5125 46.6449L94.5011 46.6135C94.5011 46.6135 94.4841 46.6135 94.4728 46.6135H94.4303C94.3396 46.6249 94.2545 46.5678 94.1667 46.4222C94.093 46.2738 93.9825 45.9341 93.9825 45.2004C93.9825 44.2898 93.3901 43.8102 93.0387 43.6018C92.914 43.5247 92.7864 43.459 92.6532 43.4048L92.3443 43.2706L92.6674 43.1764C93.5403 42.9224 94.1242 42.1202 94.1242 41.1838C94.1242 40.0305 93.2116 39.0914 92.0921 39.0914H89.8559H89.8615Z" stroke="white" stroke-miterlimit="10" stroke-linejoin="round"/>
<path d="M96.4455 44.4605H100.082L98.2622 39.4905L96.4426 44.4605H96.4455ZM100.195 44.7574H96.3378L95.598 46.7871C95.5867 46.8442 95.5329 46.8899 95.4762 46.8899C95.4648 46.8899 95.4422 46.8784 95.4223 46.8784C95.3571 46.8442 95.3231 46.7642 95.3571 46.6872L98.1347 39.0623C98.1573 38.9938 98.2112 38.9595 98.2764 38.9709C98.3302 38.9709 98.3869 39.0052 98.4181 39.0623L101.196 46.6872C101.23 46.7671 101.184 46.8442 101.119 46.8784C101.096 46.8784 101.085 46.8899 101.074 46.8899C101.02 46.8899 100.963 46.8442 100.929 46.7871L100.192 44.7574H100.195Z" stroke="white" stroke-miterlimit="10" stroke-linejoin="round"/>
<path d="M95.4595 46.7623C95.4595 46.7623 95.4793 46.768 95.485 46.7708L96.2502 44.6384H100.272L101.04 46.748C101.046 46.7537 101.057 46.7623 101.066 46.768C101.068 46.768 101.071 46.768 101.074 46.768C101.083 46.7594 101.088 46.7508 101.085 46.7394L98.305 39.106C98.305 39.106 98.2824 39.0945 98.271 39.0945L98.2398 39.106L95.4623 46.7337C95.4567 46.748 95.4567 46.7594 95.4623 46.7651M96.6102 44.3415H99.9063L98.2569 39.8368L96.6074 44.3415H96.6102ZM100.249 44.5841H96.2729L98.2625 39.1488L100.252 44.5841H100.249ZM101.071 47.0135C100.978 47.0135 100.884 46.9507 100.827 46.8508L100.108 44.8782H96.4146L95.7032 46.8308C95.6862 46.925 95.5842 47.0135 95.4708 47.0135L95.3915 47.0049L95.3631 46.9906C95.2384 46.925 95.1846 46.7765 95.2413 46.6424L98.0159 39.0203C98.0556 38.9004 98.1662 38.8291 98.288 38.8519C98.3787 38.8462 98.4581 38.9061 98.5119 39.0003L101.298 46.6452C101.352 46.7708 101.292 46.9221 101.165 46.9878L101.068 47.0135H101.071Z" stroke="white" stroke-miterlimit="10" stroke-linejoin="round"/>
<path d="M103.093 39.2542H100.548C100.471 39.2542 100.406 39.1971 100.406 39.1172C100.406 39.0373 100.471 38.9688 100.548 38.9688H105.916C106.004 38.9688 106.06 39.0373 106.06 39.1172C106.06 39.1971 106.004 39.2542 105.916 39.2542H103.382V46.7678C103.382 46.8477 103.306 46.9162 103.238 46.9162C103.15 46.9162 103.096 46.8477 103.096 46.7678V39.2542H103.093Z" stroke="white" stroke-miterlimit="10" stroke-linejoin="round"/>
<path d="M100.545 39.0914C100.545 39.0914 100.519 39.1056 100.519 39.117L103.209 39.1313V46.7648C103.209 46.7905 103.229 46.7905 103.234 46.7905C103.243 46.7905 103.26 46.7734 103.26 46.7648V39.1313H105.913C105.938 39.0914 105.921 39.0914 105.913 39.0914H100.545ZM103.232 47.036C103.084 47.036 102.971 46.9189 102.971 46.7676V39.3768H100.542C100.395 39.3768 100.281 39.2626 100.281 39.1199C100.281 38.9743 100.4 38.8516 100.542 38.8516H105.91C106.057 38.8516 106.171 38.9686 106.171 39.1199C106.171 39.2683 106.06 39.3768 105.91 39.3768H103.492V46.7676C103.492 46.9075 103.368 47.036 103.232 47.036Z" stroke="white" stroke-miterlimit="10" stroke-linejoin="round"/>
<path d="M107.336 39.1172C107.336 39.0258 107.39 38.9688 107.48 38.9688C107.546 38.9688 107.614 39.0258 107.614 39.1172V46.7649C107.614 46.8563 107.548 46.9105 107.48 46.9105C107.393 46.9105 107.336 46.8534 107.336 46.7649V39.1172Z" stroke="white" stroke-miterlimit="10" stroke-linejoin="round"/>
<path d="M107.479 39.0914C107.457 39.0914 107.454 39.0914 107.454 39.117V46.7648C107.454 46.7876 107.454 46.7905 107.479 46.7905L107.494 39.117C107.494 39.0942 107.482 39.0914 107.479 39.0914ZM107.479 47.036C107.326 47.036 107.219 46.9246 107.219 46.7676V39.1199C107.219 38.96 107.326 38.8516 107.479 38.8516C107.618 38.8516 107.729 38.9715 107.729 39.1199V46.7676C107.729 46.9189 107.618 47.036 107.479 47.036Z" stroke="white" stroke-miterlimit="10" stroke-linejoin="round"/>
<path d="M113.157 46.7555C115.041 46.7326 116.606 45.0541 116.617 42.953C116.606 40.8434 115.041 39.1506 113.157 39.1506C111.261 39.1506 109.696 40.8434 109.696 42.953C109.696 45.0512 111.261 46.7326 113.157 46.7555ZM113.157 38.8594C115.24 38.8594 116.903 40.6864 116.926 42.9559C116.903 45.2368 115.24 47.0638 113.157 47.0638C111.073 47.0638 109.41 45.2368 109.398 42.9559C109.41 40.6864 111.073 38.8594 113.157 38.8594Z" stroke="white" stroke-miterlimit="10" stroke-linejoin="round"/>
<path d="M113.158 39.2711C111.316 39.2711 109.814 40.9211 109.814 42.9508C109.814 44.9805 111.313 46.6076 113.158 46.6305C114.992 46.6076 116.491 44.9576 116.503 42.9508C116.491 40.9239 114.992 39.2711 113.158 39.2711ZM113.158 46.876C111.186 46.8531 109.582 45.0918 109.582 42.9536C109.582 40.7898 111.186 39.0313 113.161 39.0313C115.123 39.0313 116.73 40.7898 116.741 42.9536C116.73 45.0946 115.125 46.8531 113.164 46.8788L113.158 46.876ZM113.158 38.977C111.16 38.977 109.528 40.7612 109.516 42.9536C109.528 45.1889 111.126 46.9388 113.158 46.9388C115.185 46.9388 116.789 45.186 116.812 42.9508C116.789 40.7241 115.185 38.977 113.158 38.977ZM113.158 47.1814C110.996 47.1814 109.293 45.323 109.281 42.9536C109.293 40.627 111.033 38.7344 113.158 38.7344C115.315 38.7344 117.024 40.5871 117.047 42.9508C117.024 45.323 115.315 47.1814 113.158 47.1814Z" stroke="white" stroke-miterlimit="10" stroke-linejoin="round"/>
<path d="M118.215 39.5617V46.767C118.215 46.8469 118.161 46.9154 118.082 46.9154C118.017 46.9154 117.938 46.8469 117.938 46.767V39.1763V39.1421C117.938 39.0964 117.96 39.0507 117.994 39.0165C118.071 38.9708 118.147 38.9822 118.193 39.0393L123.286 46.3245V39.1763C123.286 39.0964 123.362 39.0279 123.43 39.0279C123.507 39.0279 123.563 39.0964 123.563 39.1763V46.767C123.563 46.8469 123.51 46.9154 123.43 46.9154C123.373 46.9154 123.32 46.8812 123.297 46.8241C123.297 46.8241 123.293 46.8203 123.286 46.8126L118.215 39.5617Z" stroke="white" stroke-miterlimit="10" stroke-linejoin="round"/>
<path d="M123.434 47.0348C123.358 47.0348 123.287 47.0006 123.239 46.9435H123.185L123.176 46.855L118.338 39.9352V46.7665C118.338 46.9178 118.228 47.0348 118.089 47.0348C117.953 47.0348 117.828 46.9064 117.828 46.7665V39.1387C117.828 39.0616 117.862 38.9874 117.919 38.9275L117.944 38.9075C118.072 38.8333 118.211 38.8533 118.293 38.9617L123.176 45.9472V39.173C123.176 39.0331 123.301 38.9046 123.437 38.9046C123.576 38.9046 123.686 39.0245 123.686 39.173V46.7665C123.686 46.9178 123.576 47.0348 123.437 47.0348M118.075 39.1102C118.075 39.1102 118.063 39.133 118.063 39.1387V46.7665C118.063 46.7665 118.08 46.7893 118.092 46.7922L118.106 39.1844L123.36 46.7008H123.38L123.411 46.7779L123.448 46.7665V39.173C123.448 39.173 123.443 39.1473 123.434 39.1473C123.426 39.1473 123.409 39.1644 123.409 39.173V46.698L118.103 39.1073C118.097 39.1016 118.086 39.1073 118.075 39.1102Z" stroke="white" stroke-miterlimit="10" stroke-linejoin="round"/>
<path d="M167.852 32.5701C167.342 38.1799 165.215 43.0569 161.471 47.2029L158.19 47.7614L153.519 48.1138L148.748 47.8026C146.171 47.3884 143.642 46.7174 141.16 45.7915L140.797 45.3773C140.019 44.3689 139.448 43.2631 139.087 42.0616L138.945 41.5443C143.992 43.4655 149.031 43.3961 154.063 41.3363C159.229 39.2502 162.839 35.5746 164.893 30.3097C166.289 26.7316 166.181 23.1948 164.571 19.6992C167.215 23.5809 168.309 27.8712 167.852 32.5701Z" fill="white"/>
<path d="M176.497 27.7838C176.175 29.3432 175.799 30.897 175.369 32.4433C174.913 34.0178 174.329 35.5416 173.618 37.0204C172.451 39.4233 171.054 41.6931 169.431 43.8335L168.927 44.0397C167.773 44.5102 166.573 44.7294 165.324 44.7032L164.822 44.6826C168.149 40.3342 169.647 35.386 169.31 29.8362C168.975 24.1214 166.694 19.4487 162.466 15.8182C159.595 13.3479 156.292 12.3526 152.562 12.8362C156.95 11.4698 161.253 11.7247 165.466 13.6028C170.484 15.8388 174.329 19.4281 176.999 24.3707C176.891 25.5309 176.724 26.6686 176.497 27.7876" fill="white"/>
<path d="M171.345 9.33062C173.21 11.2106 174.881 13.276 176.358 15.5271L176.399 16.0856C176.466 17.3564 176.299 18.601 175.897 19.8155L175.735 20.3122C172.742 15.7108 168.623 12.7119 163.375 11.3174C157.993 9.8798 152.967 10.6689 148.297 13.6809C145.129 15.7258 143.198 18.6553 142.5 22.4695C142.593 17.7313 144.158 13.5928 147.191 10.056C150.814 5.84066 155.331 3.18851 160.738 2.09766C161.758 2.56811 162.744 3.07792 163.697 3.63084L167.662 6.15929C168.991 7.11331 170.219 8.17042 171.347 9.33062" fill="white"/>
<path d="M156.573 2.09548C151.392 3.60243 147.352 6.70441 144.455 11.4014C141.463 16.2372 140.637 21.4046 141.98 26.9039C142.892 30.6337 145 33.4321 148.301 35.297C143.966 33.7488 140.631 30.9374 138.297 26.8626C135.506 22.0138 134.445 16.777 135.117 11.1521L137.453 8.72679C138.619 7.63594 139.814 6.59945 141.035 5.61731C142.309 4.60893 143.659 3.72426 145.082 2.96329C147.404 1.73374 149.825 0.745976 152.349 0L152.872 0.123705C154.079 0.455458 155.181 1.00088 156.173 1.76185L156.575 2.09361L156.573 2.09548Z" fill="white"/>
<path d="M130.583 18.7101L130.864 18.234C131.548 17.1563 132.401 16.2454 133.42 15.4976L133.822 15.207C133.621 20.7475 135.244 25.6657 138.694 29.9635C142.224 34.385 146.74 36.7897 152.241 37.1758C155.972 37.4251 159.206 36.2237 161.943 33.5697C159.165 37.3408 155.535 39.7399 151.054 40.7614C145.713 41.9909 140.553 41.4099 135.573 39.0202L134.023 35.995L132.272 31.5192C131.749 29.9579 131.353 28.3628 131.085 26.7322C130.67 24.0931 130.501 21.4204 130.583 18.712" fill="white"/>
</g>
<defs>
<clipPath id="clip0_1230_15828">
<rect width="177" height="48.1138" fill="white"/>
</clipPath>
</defs>
</svg>
